<?xml version="1.0" encoding="UTF-8"?>
<svg version="1.1" xmlns="http://www.w3.org/2000/svg" width="500" height="500">
<path d="M0 0 C165 0 330 0 500 0 C500 165 500 330 500 500 C335 500 170 500 0 500 C0 335 0 170 0 0 Z " fill="#FEFEFE" transform="translate(0,0)"/>
<path d="M0 0 C1.31097656 0.01353516 1.31097656 0.01353516 2.6484375 0.02734375 C3.30070313 0.03894531 3.95296875 0.05054687 4.625 0.0625 C4.955 1.3825 5.285 2.7025 5.625 4.0625 C4.635 4.3925 3.645 4.7225 2.625 5.0625 C2.625 6.7125 2.625 8.3625 2.625 10.0625 C-11.30543357 13.36888002 -25.19072827 15.22794047 -39.41894531 16.73779297 C-45.41943783 17.39691545 -51.39727101 18.22403966 -57.375 19.0625 C-57.375 18.4025 -57.375 17.7425 -57.375 17.0625 C-45.46812659 14.51516242 -33.45839946 12.9689 -21.38061523 11.50878906 C-14.60320349 10.67383836 -8.00646059 9.70034702 -1.375 8.0625 C-14.56889424 9.15654051 -14.56889424 9.15654051 -27.625 11.25 C-32.17629024 12.17751413 -35.81922834 11.92207956 -40.375 11.0625 C-40.375 10.7325 -40.375 10.4025 -40.375 10.0625 C-39.35664063 9.92150879 -38.33828125 9.78051758 -37.2890625 9.63525391 C-33.47903732 9.10658278 -29.6698329 8.57218535 -25.86083984 8.03613281 C-24.21815169 7.80574991 -22.5752504 7.57688103 -20.93212891 7.34960938 C-18.55833001 7.02099605 -16.18537348 6.68678519 -13.8125 6.3515625 C-13.08820801 6.25251617 -12.36391602 6.15346985 -11.61767578 6.05142212 C-6.76822383 5.3590917 -2.1112186 4.31647914 2.625 3.0625 C-4.62159041 2.71697958 -11.58131978 3.88310626 -18.7142334 5.02816772 C-22.38562905 5.6174764 -26.05975873 6.18897545 -29.734375 6.7578125 C-30.46763 6.87148666 -31.20088501 6.98516083 -31.95635986 7.10227966 C-39.63992964 8.27965255 -47.34941031 9.22653406 -55.07617188 10.07348633 C-61.53033235 10.62626928 -61.53033235 10.62626928 -67.375 13.0625 C-68.91577225 15.49686077 -70.12600722 17.71587596 -71.3125 20.3125 C-71.65458496 21.03050781 -71.99666992 21.74851563 -72.34912109 22.48828125 C-73.37914903 24.67053567 -74.38173209 26.86330103 -75.375 29.0625 C-76.18517578 30.84914062 -76.18517578 30.84914062 -77.01171875 32.671875 C-79.91260616 39.28072085 -82.49265263 45.98147079 -84.98706055 52.75 C-89.24924888 64.22185332 -94.20381839 75.42396272 -99.125 86.625 C-99.69429852 87.92825961 -100.26332077 89.23163993 -100.83203125 90.53515625 C-101.77630924 92.69384745 -102.72982732 94.84856287 -103.69921875 96.99609375 C-105.98888999 102.2743885 -107.17052999 106.29490757 -106.375 112.0625 C-103.61967432 116.31029375 -99.15045343 117.89924852 -94.375 119.0625 C-90.3805466 119.571597 -86.39625485 119.86813935 -82.375 120.0625 C-82.40980469 119.34964844 -82.44460937 118.63679688 -82.48046875 117.90234375 C-82.72415634 109.28044487 -81.01922936 104.36057471 -76.375 97.0625 C-76.045 97.7225 -75.715 98.3825 -75.375 99.0625 C-74.79492188 98.77375 -74.21484375 98.485 -73.6171875 98.1875 C-72.83601563 97.81625 -72.05484375 97.445 -71.25 97.0625 C-70.48429687 96.69125 -69.71859375 96.32 -68.9296875 95.9375 C-65.95727173 94.91942487 -63.49564006 94.91777466 -60.375 95.0625 C-60.34921875 93.94230469 -60.3234375 92.82210937 -60.296875 91.66796875 C-60.24059365 90.19527354 -60.18324632 88.7226188 -60.125 87.25 C-60.11082031 86.51201172 -60.09664063 85.77402344 -60.08203125 85.01367188 C-59.83878534 79.63793737 -59.83878534 79.63793737 -57.8984375 77.23046875 C-54.12154618 75.48234104 -50.24868635 74.32261586 -46.25 73.1875 C-45.36997314 72.93210449 -44.48994629 72.67670898 -43.58325195 72.41357422 C-41.75504076 71.88505707 -39.92567473 71.36051941 -38.09521484 70.83984375 C-35.49230862 70.09602277 -32.89624418 69.33182757 -30.30078125 68.5625 C-28.72161976 68.10325243 -27.14220372 67.64487895 -25.5625 67.1875 C-24.8411084 66.9723877 -24.1197168 66.75727539 -23.37646484 66.53564453 C-18.95468506 65.28278965 -15.01664395 64.67812296 -10.375 65.0625 C-9.715 65.7225 -9.055 66.3825 -8.375 67.0625 C-6.43316368 67.81570962 -4.48893758 68.56383109 -2.52880859 69.26806641 C0.65449786 70.44223091 3.72060834 71.85483774 6.8125 73.25 C16.58664052 77.60477971 26.60059307 81.32966586 36.625 85.0625 C34.11594016 88.03213432 31.53889613 89.06760053 27.92578125 90.40234375 C26.79849609 90.82580078 25.67121094 91.24925781 24.50976562 91.68554688 C23.33091797 92.11931641 22.15207031 92.55308594 20.9375 93 C11.83910201 96.30392414 11.83910201 96.30392414 3.04296875 100.31640625 C0.38197172 101.67579559 -1.53494893 102.44108115 -4.375 103.0625 C-4.375 104.3825 -4.375 105.7025 -4.375 107.0625 C-5.035 107.0625 -5.695 107.0625 -6.375 107.0625 C-6.375 106.0725 -6.375 105.0825 -6.375 104.0625 C-7.09776123 103.94406738 -7.82052246 103.82563477 -8.56518555 103.70361328 C-11.43184716 103.04952923 -13.69830421 102.1003461 -16.33203125 100.8046875 C-17.74258789 100.11838257 -17.74258789 100.11838257 -19.18164062 99.41821289 C-20.17357422 98.92957764 -21.16550781 98.44094238 -22.1875 97.9375 C-30.38157863 93.95096443 -38.60298971 90.13562071 -47 86.59765625 C-50.61794959 84.95199168 -53.9546886 83.08240329 -57.375 81.0625 C-57.375 86.3425 -57.375 91.6225 -57.375 97.0625 C-47.95397101 101.947478 -38.59346451 106.27327855 -28.70507812 110.11328125 C-21.35063945 112.99782373 -14.35469109 116.36465042 -7.375 120.0625 C-7.045 119.0725 -6.715 118.0825 -6.375 117.0625 C-6.375 118.0525 -6.375 119.0425 -6.375 120.0625 C-3.03202455 118.5160021 0.31031089 116.96812806 3.65209961 115.41906738 C4.88364106 114.84820423 6.11524911 114.27748473 7.34692383 113.70690918 C15.21746356 110.05962325 23.07425275 106.38478803 30.9140625 102.671875 C31.68305878 102.30811768 32.45205505 101.94436035 33.24435425 101.56958008 C37.03197501 99.77786453 40.81786877 97.98266044 44.60107422 96.18164062 C45.99438755 95.52196939 47.38777582 94.86245639 48.78125 94.203125 C49.73265366 93.74773346 49.73265366 93.74773346 50.70327759 93.28314209 C53.11707533 92.14466768 55.35704079 91.12007893 57.97460938 90.55761719 C58.51923828 90.39422852 59.06386719 90.23083984 59.625 90.0625 C60.9295656 87.06634054 60.9295656 87.06634054 61.625 84.0625 C61.955 84.0625 62.285 84.0625 62.625 84.0625 C62.625 85.7125 62.625 87.3625 62.625 89.0625 C63.16125 89.08828125 63.6975 89.1140625 64.25 89.140625 C82.75217862 90.47959845 110.94118447 96.88217554 124.3125 110.4375 C126.24899739 112.98020527 127.04919506 114.93037603 127.25 118.125 C126.37869674 123.61421052 124.84051449 126.32569489 120.4375 129.77734375 C102.6562693 141.86963903 80.98763086 145.9314552 60.03686523 148.43243408 C43.78480913 150.41795695 29.67698139 153.44242126 14.94116211 160.89453125 C12.56751383 162.09148849 10.1744503 163.2214303 7.75390625 164.3203125 C7.05595947 164.63887207 6.3580127 164.95743164 5.63891602 165.28564453 C1.1018786 167.03577825 -2.64497192 167.16501134 -7.203125 165.32421875 C-10.67375807 163.74360098 -14.0506406 162.00629955 -17.41015625 160.203125 C-18.0757959 159.85121094 -18.74143555 159.49929688 -19.42724609 159.13671875 C-21.375 158.0625 -21.375 158.0625 -23.04541016 156.95703125 C-29.48186688 153.02933595 -36.86587645 153.13957295 -44.19085693 152.70834351 C-48.34650124 152.45935496 -52.49715523 152.14445035 -56.6484375 151.83203125 C-57.4796109 151.77026199 -58.3107843 151.70849274 -59.16714478 151.64485168 C-85.76416527 149.6151006 -125.63876411 146.45444145 -145.625 126.1875 C-147.99110842 121.96230639 -148.46916079 118.78728524 -147.375 114.0625 C-144.17182584 106.90068607 -135.52544442 103.08174062 -128.73535156 99.93017578 C-126.14195906 98.97683311 -123.68881657 98.51861996 -120.9609375 98.08984375 C-113.46342423 96.76827004 -106.8694044 95.58782544 -102.25195312 89.06201172 C-97.69077273 80.86972221 -94.86431581 71.78576711 -91.9833374 62.90130615 C-90.57078468 58.63161859 -88.92710874 54.44622908 -87.3125 50.25 C-87.0131958 49.44804199 -86.7138916 48.64608398 -86.40551758 47.81982422 C-83.62288663 40.43799063 -80.44837592 33.2441615 -77.1875 26.0625 C-76.68790771 24.94512451 -76.18831543 23.82774902 -75.67358398 22.67651367 C-75.18962158 21.62826416 -74.70565918 20.58001465 -74.20703125 19.5 C-73.56858276 18.10587891 -73.56858276 18.10587891 -72.91723633 16.68359375 C-70.31879706 12.26743988 -68.02546767 9.54404652 -63.01953125 8.08349609 C-61.75496094 7.91930176 -60.49039063 7.75510742 -59.1875 7.5859375 C-58.49605896 7.49005341 -57.80461792 7.39416931 -57.09222412 7.29537964 C-54.85528179 6.98970526 -52.61577974 6.71348871 -50.375 6.4375 C-48.83468743 6.23218481 -47.29464696 6.02481813 -45.75488281 5.81542969 C-42.70439016 5.40328583 -39.65282777 5.00178344 -36.59960938 4.61035156 C-31.09959743 3.90285424 -25.61262788 3.10957997 -20.125 2.3125 C-18.53649308 2.08829538 -16.94795434 1.86431598 -15.359375 1.640625 C-12.94736931 1.29987776 -10.5634542 0.91736955 -8.1640625 0.48828125 C-5.39200349 0.06509577 -2.8008831 -0.03784977 0 0 Z " fill="#8D75FE" transform="translate(260.375,109.9375)"/>
<path d="M0 0 C-1 2 -1 2 -3.203125 2.74609375 C-12.20073467 4.78785902 -21.23555009 6.11942043 -30.375 7.3515625 C-33.61219936 7.79100716 -36.80766381 8.29502576 -40 9 C-31.72110775 8.43773331 -23.5492788 7.26095163 -15.35083008 6.01635742 C-14.47450928 5.88592041 -13.59818848 5.7554834 -12.6953125 5.62109375 C-11.91172363 5.5017749 -11.12813477 5.38245605 -10.32080078 5.25952148 C-7.86230741 4.98460265 -5.47176137 4.95651582 -3 5 C-10.65596953 12.65596953 -31.67067741 11.55033718 -41.91601562 12.65917969 C-46.1576483 13.12793517 -50.39174602 13.64889183 -54.625 14.1875 C-56.50058594 14.42533203 -56.50058594 14.42533203 -58.4140625 14.66796875 C-59.26742187 14.77753906 -60.12078125 14.88710937 -61 15 C-61 15.66 -61 16.32 -61 17 C-59.74574219 16.7009375 -58.49148437 16.401875 -57.19921875 16.09375 C-51.77334946 14.88917945 -46.32531258 14.17635107 -40.8125 13.5 C-38.76947415 13.2400317 -36.7265051 12.97961657 -34.68359375 12.71875 C-32.78906271 12.47916498 -30.89453148 12.23958149 -29 12 C-15.33447112 10.3151577 -15.33447112 10.3151577 -2 7 C-1.67 6.34 -1.34 5.68 -1 5 C0.47339844 5.95326172 0.47339844 5.95326172 1.9765625 6.92578125 C6.05225043 9.25518576 9.75098833 9.80855245 14.375 10.1875 C21.90566502 10.90566502 21.90566502 10.90566502 23 12 C23.5373028 17.16870162 22.24638063 19.94400034 19.5625 24.3125 C18.82670665 25.53743249 18.09375815 26.76407718 17.36328125 27.9921875 C16.78441162 28.96043457 16.78441162 28.96043457 16.19384766 29.94824219 C13.69897616 34.2359518 11.44266641 38.65377739 9.14672852 43.05004883 C6.85548257 47.42367457 4.47374591 51.72665966 2 56 C2.75925781 55.77570313 3.51851563 55.55140625 4.30078125 55.3203125 C9.64737022 54.85735548 14.08424286 56.3628797 19.1875 57.875 C20.26507568 58.1851001 21.34265137 58.4952002 22.45288086 58.81469727 C35.0863078 62.50916469 47.55332596 66.72460323 60 71 C60.05395478 72.62463842 60.09277195 74.24978541 60.125 75.875 C60.14820313 76.77992188 60.17140625 77.68484375 60.1953125 78.6171875 C60 81 60 81 58 83 C57.74589355 83.98129883 57.49178711 84.96259766 57.22998047 85.97363281 C56 89 56 89 53.49267578 90.42480469 C52.4457959 90.75383789 51.39891602 91.08287109 50.3203125 91.421875 C45.24269384 93.17162323 40.44045866 95.09188404 35.6171875 97.453125 C34.99100021 97.75818466 34.36481293 98.06324432 33.71965027 98.37754822 C32.4298981 99.00837823 31.14110347 99.64116946 29.85324097 100.27584839 C27.8302588 101.27203206 25.80352688 102.26019114 23.77563477 103.24633789 C17.83170968 106.13847486 11.89774438 109.04992199 5.97265625 111.98046875 C4.29441615 112.79977689 2.61604384 113.61881432 0.9375 114.4375 C0.20192871 114.80842773 -0.53364258 115.17935547 -1.29150391 115.56152344 C-5.37190693 117.5401943 -8.4693907 118.63131441 -13 118 C-15.69921875 116.85546875 -15.69921875 116.85546875 -18.6875 115.1875 C-26.95947529 110.74928067 -35.67050097 107.40691072 -44.4050293 103.99682617 C-58.60708128 98.36394049 -58.60708128 98.36394049 -62 95 C-62.71085713 91.85296897 -62.48097469 89.17227124 -62 86 C-61.91621094 85.29488281 -61.83242187 84.58976562 -61.74609375 83.86328125 C-61.53820265 82.23645093 -61.27520094 80.61680551 -61 79 C-57.42542284 80.03474602 -54.17267041 81.36688933 -50.875 83.0625 C-45.70559573 85.70986158 -40.42889317 88.07601289 -35.125 90.4375 C-28.39730116 93.43567979 -21.7601899 96.52558341 -15.21484375 99.90625 C-12.91800522 101.10317545 -12.91800522 101.10317545 -10 102 C-10 102.99 -10 103.98 -10 105 C-9.75918701 104.21608887 -9.51837402 103.43217773 -9.27026367 102.62451172 C-8 100 -8 100 -6.06762695 98.81689453 C-4.88366333 98.41639893 -4.88366333 98.41639893 -3.67578125 98.0078125 C-2.77939941 97.6871582 -1.88301758 97.36650391 -0.95947266 97.03613281 C0.01715332 96.69420898 0.9937793 96.35228516 2 96 C4.09366657 95.17368366 6.18340883 94.33736893 8.26953125 93.4921875 C16.1796875 90.328125 24.08984375 87.1640625 32 84 C26.34204234 81.6080179 20.67008288 79.25914849 14.9609375 76.9921875 C14.08147461 76.64285156 13.20201172 76.29351562 12.29589844 75.93359375 C10.54226423 75.23855189 8.78773251 74.5457694 7.03222656 73.85546875 C2.57015097 72.08671807 -1.711391 70.16289673 -6 68 C-7.61192946 67.40107208 -9.23634686 66.83388963 -10.875 66.3125 C-11.65617187 66.06113281 -12.43734375 65.80976563 -13.2421875 65.55078125 C-13.82226562 65.36902344 -14.40234375 65.18726563 -15 65 C-15 64.67 -15 64.34 -15 64 C-23.4923714 64.2952517 -31.24465474 66.24705558 -39.31762695 68.75585938 C-41.32339911 69.37838271 -43.33387887 69.9832937 -45.34570312 70.5859375 C-53.9589409 73.10244853 -53.9589409 73.10244853 -62 77 C-62.79559232 79.94855015 -63.19251834 82.20262141 -63.375 85.1875 C-63.44332031 85.93708984 -63.51164062 86.68667969 -63.58203125 87.45898438 C-63.74654747 89.30391622 -63.87664884 91.15185942 -64 93 C-64.58007812 93.12117188 -65.16015625 93.24234375 -65.7578125 93.3671875 C-70.28028442 94.33735474 -74.63750966 95.43397783 -79 97 C-79.495 96.505 -79.495 96.505 -80 96 C-80.64834654 97.269553 -81.29357815 98.54069706 -81.9375 99.8125 C-82.29714844 100.52019531 -82.65679687 101.22789062 -83.02734375 101.95703125 C-84.74392738 105.56254627 -85.23771911 108.74373203 -85.5625 112.6875 C-85.64628906 113.68136719 -85.73007813 114.67523438 -85.81640625 115.69921875 C-85.87699219 116.45847656 -85.93757813 117.21773438 -86 118 C-95.37686837 118.5711798 -101.7843285 117.561922 -109.5625 112.25 C-111.65782199 108.97036558 -111.37971159 105.7525468 -111 102 C-109.92578125 98.84375 -109.92578125 98.84375 -108.3125 95.5 C-104.43136069 87.15263547 -100.95080936 78.65627642 -97.5 70.125 C-96.92255033 68.70197582 -96.34507645 67.27896147 -95.76757812 65.85595703 C-92.87760905 58.72222744 -90.04508093 51.57065611 -87.3125 44.375 C-84.70107838 37.54645754 -81.80467819 30.85746187 -78.8125 24.1875 C-78.39589111 23.24890137 -77.97928223 22.31030273 -77.55004883 21.34326172 C-73.22247497 11.83803936 -73.22247497 11.83803936 -70 9 C-67.06773711 8.21419024 -64.54883048 7.75418688 -61.5625 7.4375 C-60.70720703 7.32801025 -59.85191406 7.21852051 -58.97070312 7.10571289 C-57.05457712 6.86047435 -55.13732476 6.62393275 -53.21923828 6.39453125 C-48.41079967 5.80523679 -43.61440181 5.13365829 -38.81616211 4.46704102 C-36.32930475 4.12195794 -33.84185761 3.78109068 -31.35375977 3.44506836 C-24.7578019 2.55060099 -18.19707074 1.56030342 -11.64550781 0.3815918 C-7.72558121 -0.18382397 -3.95370215 -0.13179007 0 0 Z " fill="#9982FE" transform="translate(264,112)"/>
<path d="M0 0 C-0.69188321 3.43276646 -2.01810795 6.22915062 -3.625 9.33203125 C-4.43046265 10.89099121 -4.43046265 10.89099121 -5.25219727 12.48144531 C-7.60756638 16.97043206 -9.97724965 21.45142014 -12.36669922 25.92236328 C-13.7545881 28.53756914 -15.10348384 31.16770108 -16.44140625 33.80859375 C-20.16298733 40.90185646 -23.50893734 45.58060732 -31.4765625 48.109375 C-33.22066406 48.55023438 -33.22066406 48.55023438 -35 49 C-36.38333229 49.37831277 -37.76611408 49.75864233 -39.1484375 50.140625 C-42.29869393 50.99442326 -45.45645128 51.81067211 -48.62109375 52.609375 C-54.71880456 54.16389575 -60.76699351 55.87972532 -66.8125 57.625 C-67.8324707 57.9142334 -68.85244141 58.2034668 -69.90332031 58.50146484 C-77.34794286 60.42993363 -77.34794286 60.42993363 -84 64 C-84.79559232 66.94855015 -85.19251834 69.20262141 -85.375 72.1875 C-85.44332031 72.93708984 -85.51164063 73.68667969 -85.58203125 74.45898438 C-85.74654747 76.30391622 -85.87664884 78.15185942 -86 80 C-86.58007812 80.12117188 -87.16015625 80.24234375 -87.7578125 80.3671875 C-92.28028442 81.33735474 -96.63750966 82.43397783 -101 84 C-98.33152193 77.13479206 -95.41347384 70.42944385 -92.3125 63.75 C-89.23952455 57.08298428 -86.30009121 50.39389158 -83.59912109 43.56713867 C-82.50237982 40.81846435 -81.35970108 38.09281738 -80.20703125 35.3671875 C-78.70270355 31.80679417 -77.40660765 28.24093407 -76.19921875 24.5703125 C-74.27076686 19.33803703 -72.38309797 14.62468116 -68 11 C-60.17238249 7.6841162 -51.60949937 7.05982083 -43.21826172 6.31347656 C-39.33744986 5.93546394 -35.67815663 5.22565175 -31.875 4.375 C-26.43062431 3.26455041 -20.97571112 2.25414042 -15.5 1.3125 C-14.3860083 1.11503174 -14.3860083 1.11503174 -13.24951172 0.91357422 C-8.76635252 0.15910371 -4.54613513 -0.12561689 0 0 Z " fill="#F6E8FF" transform="translate(286,125)"/>
<path d="M0 0 C-0.33 0.66 -0.66 1.32 -1 2 C-9.847622 4.84004317 -19.25135686 5.85607877 -28.4375 7 C-31.06384241 7.33822868 -33.69014414 7.67677337 -36.31640625 8.015625 C-37.60562988 8.17998047 -38.89485352 8.34433594 -40.22314453 8.51367188 C-45.77793533 9.22893647 -51.32660581 9.98693953 -56.875 10.75 C-58.66405773 10.99482656 -60.45311969 11.23962214 -62.2421875 11.484375 C-63.48226562 11.65453125 -64.72234375 11.8246875 -66 12 C-66.33 13.65 -66.66 15.3 -67 17 C-60.87829191 21.70218158 -55.68002296 24.07005985 -48 25 C-49.46583961 28.95266202 -51.35573286 32.46351351 -53.4375 36.125 C-57.91406605 44.26487366 -61.26852615 52.81215673 -64.70507812 61.42944336 C-67.91776476 69.44616296 -71.3211448 77.34461763 -74.9375 85.1875 C-75.38585205 86.16001709 -75.8342041 87.13253418 -76.29614258 88.13452148 C-78.22442837 92.2833017 -80.18893367 96.40571062 -82.25390625 100.48828125 C-84.36537873 104.73484448 -85.17725648 108.00954292 -85.5625 112.6875 C-85.64628906 113.68136719 -85.73007813 114.67523438 -85.81640625 115.69921875 C-85.87699219 116.45847656 -85.93757813 117.21773438 -86 118 C-95.37686837 118.5711798 -101.7843285 117.561922 -109.5625 112.25 C-111.65782199 108.97036558 -111.37971159 105.7525468 -111 102 C-109.92578125 98.84375 -109.92578125 98.84375 -108.3125 95.5 C-104.43136069 87.15263547 -100.95080936 78.65627642 -97.5 70.125 C-96.92255033 68.70197582 -96.34507645 67.27896147 -95.76757812 65.85595703 C-92.87760905 58.72222744 -90.04508093 51.57065611 -87.3125 44.375 C-84.70107838 37.54645754 -81.80467819 30.85746187 -78.8125 24.1875 C-78.39589111 23.24890137 -77.97928223 22.31030273 -77.55004883 21.34326172 C-73.22247497 11.83803936 -73.22247497 11.83803936 -70 9 C-67.06773711 8.21419024 -64.54883048 7.75418688 -61.5625 7.4375 C-60.70720703 7.32801025 -59.85191406 7.21852051 -58.97070312 7.10571289 C-57.05457712 6.86047435 -55.13732476 6.62393275 -53.21923828 6.39453125 C-48.41079967 5.80523679 -43.61440181 5.13365829 -38.81616211 4.46704102 C-36.32930475 4.12195794 -33.84185761 3.78109068 -31.35375977 3.44506836 C-24.7578019 2.55060099 -18.19707074 1.56030342 -11.64550781 0.3815918 C-7.72558121 -0.18382397 -3.95370215 -0.13179007 0 0 Z " fill="#F5E7FF" transform="translate(264,112)"/>
<path d="M0 0 C-0.2165625 0.79664063 -0.433125 1.59328125 -0.65625 2.4140625 C-0.9346875 3.47367188 -1.213125 4.53328125 -1.5 5.625 C-1.7784375 6.66914063 -2.056875 7.71328125 -2.34375 8.7890625 C-2.99977869 11.99891716 -3.25357048 14.73585634 -3 18 C0.55442757 22.81567606 5.32758454 25.386439 11 27 C13.20484102 27.17617374 15.41444561 27.29877399 17.625 27.375 C23.02795719 27.66100234 25.2174159 28.35418747 28.92578125 32.15234375 C31.68534484 34.61048608 34.77621485 36.29860966 38 38.0625 C38.66563965 38.42931885 39.3312793 38.7961377 40.01708984 39.17407227 C41.49619543 39.98675468 42.97640922 40.79742225 44.45751953 41.60644531 C49.46803882 44.3527526 54.45332764 47.14375243 59.4375 49.9375 C60.46294922 50.5054126 61.48839844 51.0733252 62.54492188 51.65844727 C63.49818359 52.19268311 64.45144531 52.72691895 65.43359375 53.27734375 C66.29009521 53.75421631 67.14659668 54.23108887 68.02905273 54.72241211 C70 56 70 56 71 58 C43.33296193 59.30368242 14.38510845 55.47451452 -12 47 C-12.66306152 46.78875488 -13.32612305 46.57750977 -14.00927734 46.35986328 C-23.82316193 43.13874962 -36.71801032 38.43212443 -42 29 C-42.90688308 25.10825763 -42.81542934 21.82317691 -41.171875 18.1484375 C-33.35853941 7.31856095 -12.92448299 0 0 0 Z " fill="#5D47DB" transform="translate(155,204)"/>
<path d="M0 0 C5.47750955 0.43580809 10.01474083 2.54933598 14.9375 4.8125 C16.23445801 5.40212524 16.23445801 5.40212524 17.55761719 6.00366211 C26.37810937 10.07302342 34.95934134 14.5827027 43.54296875 19.125 C50.63293725 22.87654239 57.81069025 26.44390519 65 30 C65.94746094 30.60714844 66.89492187 31.21429688 67.87109375 31.83984375 C74.7185346 34.37878249 82.48354994 30.19550842 88.890625 27.5 C96.91261614 24.21058895 104.98310633 21.08516322 113.109375 18.0625 C114.22453491 17.64758301 115.33969482 17.23266602 116.48864746 16.80517578 C119.90840718 15.53491262 123.32917281 14.26738526 126.75 13 C129.11597031 12.12132232 131.48185624 11.24241737 133.84765625 10.36328125 C139.56413738 8.23957574 145.2816407 6.11864272 151 4 C151 4.99 151 5.98 151 7 C149 8.6875 149 8.6875 147 10 C147.33 10 147.66 10 148 10 C148 11.65 148 13.3 148 15 C147.14881592 15.28198242 146.29763184 15.56396484 145.4206543 15.85449219 C142.20897034 16.91931226 138.99776883 17.98556454 135.78686523 19.05273438 C134.40716791 19.51097552 133.02729028 19.96867423 131.6472168 20.42578125 C123.38591837 23.16254266 115.15722737 25.96345413 107 29 C110.12399385 29 112.01055012 28.42322369 114.9375 27.390625 C115.91589844 27.04773438 116.89429688 26.70484375 117.90234375 26.3515625 C118.92457031 25.98804688 119.94679688 25.62453125 121 25.25 C121.99128906 24.90195313 122.98257813 24.55390625 124.00390625 24.1953125 C128.04617785 22.77234857 132.08354464 21.34265954 136.09765625 19.84179688 C137.56525391 19.29362305 137.56525391 19.29362305 139.0625 18.734375 C139.94035156 18.40147461 140.81820312 18.06857422 141.72265625 17.72558594 C144 17 144 17 147 17 C146.77880859 18.8815918 146.77880859 18.8815918 146 21 C144.07666016 22.07739258 144.07666016 22.07739258 141.5390625 22.89453125 C140.60280029 23.20632324 139.66653809 23.51811523 138.7019043 23.83935547 C137.68652588 24.16049316 136.67114746 24.48163086 135.625 24.8125 C133.49822073 25.51809454 131.37192407 26.22514532 129.24609375 26.93359375 C127.6525708 27.45735596 127.6525708 27.45735596 126.02685547 27.99169922 C121.88284094 29.37214607 117.78172205 30.85413454 113.6875 32.375 C112.94669189 32.64900635 112.20588379 32.9230127 111.44262695 33.20532227 C102.19789501 36.64407138 93.00115112 40.21034275 83.80078125 43.765625 C82.29378662 44.33700195 82.29378662 44.33700195 80.75634766 44.91992188 C79.0758392 45.57843112 77.40855079 46.27415258 75.77099609 47.03320312 C71.20520841 49.0844827 68.0836229 49.23580183 63.38867188 47.91748047 C58.73066365 46.12835589 54.5255161 43.61211969 50.25 41.0625 C48.21649122 39.87997491 46.18129594 38.7003458 44.14453125 37.5234375 C42.61046631 36.63543457 42.61046631 36.63543457 41.04541016 35.72949219 C36.4049779 33.09418498 31.67965503 30.63363227 26.9375 28.1875 C19.75980925 24.47506303 12.69582052 20.62871475 5.71484375 16.55859375 C3.5049511 15.28989279 1.29428036 14.10587614 -1 13 C-1 13.66 -1 14.32 -1 15 C-0.1330249 15.26409668 0.7339502 15.52819336 1.62719727 15.80029297 C4.98640872 16.99516558 7.86329599 18.4441137 10.96484375 20.1953125 C12.08697266 20.82477783 13.20910156 21.45424316 14.36523438 22.1027832 C15.2405481 22.59834213 15.2405481 22.59834213 16.13354492 23.10391235 C19.17561891 24.82580898 22.22732402 26.53051285 25.27734375 28.23828125 C25.87163177 28.57170029 26.4659198 28.90511932 27.07821655 29.24864197 C33.66322501 32.94061525 40.31634951 36.49053593 47 40 C48.70713373 40.89954512 50.41415699 41.79929992 52.12109375 42.69921875 C56.74560677 45.13622209 61.37211623 47.56940454 66 50 C66 50.66 66 51.32 66 52 C59.78722258 50.07208634 53.9242877 47.75232499 48.0625 44.9375 C47.24620117 44.54828369 46.42990234 44.15906738 45.58886719 43.75805664 C38.33370194 40.25120733 31.30395931 36.39152101 24.30078125 32.41015625 C21.5155525 30.83104501 18.71108423 29.31898269 15.85546875 27.87109375 C0.5028562 20.08653791 0.5028562 20.08653791 -4 14 C-5.24575284 9.93054072 -4.42502758 6.86853463 -2.5625 3.0625 C-1 1 -1 1 0 0 Z " fill="#F1E2FF" transform="translate(189,215)"/>
<path d="M0 0 C0.125 2.875 0.125 2.875 0 6 C-0.66 6.66 -1.32 7.32 -2 8 C-2.38115967 9.47194824 -2.38115967 9.47194824 -2.77001953 10.97363281 C-4 14 -4 14 -6.50732422 15.42480469 C-7.5542041 15.75383789 -8.60108398 16.08287109 -9.6796875 16.421875 C-14.75730616 18.17162323 -19.55954134 20.09188404 -24.3828125 22.453125 C-25.00899979 22.75818466 -25.63518707 23.06324432 -26.28034973 23.37754822 C-27.5701019 24.00837823 -28.85889653 24.64116946 -30.14675903 25.27584839 C-32.1697412 26.27203206 -34.19647312 27.26019114 -36.22436523 28.24633789 C-42.16829032 31.13847486 -48.10225562 34.04992199 -54.02734375 36.98046875 C-55.70558385 37.79977689 -57.38395616 38.61881432 -59.0625 39.4375 C-59.79807129 39.80842773 -60.53364258 40.17935547 -61.29150391 40.56152344 C-65.37190693 42.5401943 -68.4693907 43.63131441 -73 43 C-75.69921875 41.85546875 -75.69921875 41.85546875 -78.6875 40.1875 C-86.95947529 35.74928067 -95.67050097 32.40691072 -104.4050293 28.99682617 C-118.60708128 23.36394049 -118.60708128 23.36394049 -122 20 C-122.71085713 16.85296897 -122.48097469 14.17227124 -122 11 C-121.91621094 10.29488281 -121.83242187 9.58976563 -121.74609375 8.86328125 C-121.53820265 7.23645093 -121.27520094 5.61680551 -121 4 C-117.42542284 5.03474602 -114.17267041 6.36688933 -110.875 8.0625 C-105.70559573 10.70986158 -100.42889317 13.07601289 -95.125 15.4375 C-88.39730116 18.43567979 -81.7601899 21.52558341 -75.21484375 24.90625 C-72.91800522 26.10317545 -72.91800522 26.10317545 -70 27 C-70 27.99 -70 28.98 -70 30 C-69.75983154 29.21641113 -69.51966309 28.43282227 -69.2722168 27.62548828 C-68 25 -68 25 -66.05004883 23.80810547 C-65.25622803 23.53885254 -64.46240723 23.26959961 -63.64453125 22.9921875 C-62.2980249 22.51023926 -62.2980249 22.51023926 -60.92431641 22.01855469 C-59.95929199 21.68243164 -58.99426758 21.34630859 -58 21 C-56.00035206 20.21998845 -54.00433085 19.43062632 -52.01171875 18.6328125 C-50.98240234 18.22514648 -49.95308594 17.81748047 -48.89257812 17.39746094 C-37.33316851 12.83582692 -37.33316851 12.83582692 -26 7.75 C-21.0515785 5.39714019 -16.02412756 3.42334467 -10.875 1.5625 C-10.13894531 1.29083008 -9.40289062 1.01916016 -8.64453125 0.73925781 C-3.36030028 -1.12010009 -3.36030028 -1.12010009 0 0 Z " fill="#9A84FF" transform="translate(324,187)"/>
<path d="M0 0 C18.84992467 0.90624638 48.08101282 7.58126758 61.6875 21.375 C63.62399739 23.91770527 64.42419506 25.86787603 64.625 29.0625 C63.75369674 34.55171052 62.21551449 37.26319489 57.8125 40.71484375 C41.16971464 52.03292843 20.93194583 56.24263459 1.375 59.3125 C-0.26045776 59.56990967 -0.26045776 59.56990967 -1.92895508 59.83251953 C-8.02433426 60.73216842 -13.83981278 61.17434492 -20 61 C-17.1198371 58.1198371 -13.58338382 57.40922944 -9.78125 56.21484375 C-8.96756958 55.95369278 -8.15388916 55.69254181 -7.31555176 55.42347717 C-4.7121743 54.58903772 -2.10623693 53.76296038 0.5 52.9375 C3.10571659 52.10692484 5.71087369 51.27463721 8.31555176 50.44081116 C9.93747654 49.92216098 11.56010019 49.40569038 13.18347168 48.8915863 C17.17127745 47.64905882 17.17127745 47.64905882 21 46 C21 44.68 21 43.36 21 42 C20.360625 41.71125 19.72125 41.4225 19.0625 41.125 C17 40 17 40 16 38 C15.32178172 33.54039487 15.16933239 29.44381688 16 25 C18.14018542 22.15187562 20.34282067 20.11170538 23.12890625 17.90234375 C25.21003592 16.19841658 25.21003592 16.19841658 25.14453125 13.94140625 C23.41286712 11.00407836 21.22323825 10.34135491 18.125 9 C16.37509766 8.23816406 16.37509766 8.23816406 14.58984375 7.4609375 C9.77273046 5.50054537 4.92273236 3.67708317 0 2 C0 1.34 0 0.68 0 0 Z " fill="#5D48DB" transform="translate(323,199)"/>
<path d="M0 0 C1.50855218 0.64974482 3.01767266 1.29817169 4.52734375 1.9453125 C5.26581543 2.26532227 6.00428711 2.58533203 6.76513672 2.91503906 C9.66773838 4.14970276 12.60977524 5.2663696 15.5625 6.375 C22.42514784 8.9810688 29.14767613 11.87749064 35.875 14.8125 C33.61306834 17.36197684 31.57946471 18.5483034 28.41796875 19.78515625 C27.55236328 20.12740234 26.68675781 20.46964844 25.79492188 20.82226562 C24.89322266 21.16966797 23.99152344 21.51707031 23.0625 21.875 C22.17240234 22.22626953 21.28230469 22.57753906 20.36523438 22.93945312 C17.87520038 23.91590085 15.37758912 24.8687788 12.875 25.8125 C11.79863281 26.22371094 10.72226562 26.63492188 9.61328125 27.05859375 C3.32004309 28.79125419 -0.68335327 27.41263717 -6.25 24.375 C-13.42400608 20.61767393 -20.71508866 17.23225253 -28.12158203 13.95922852 C-33.19719273 11.70837258 -38.17678127 9.33200587 -43.125 6.8125 C-41.43099068 3.42448136 -37.8261886 3.03327035 -34.390625 1.828125 C-29.93544019 0.44254121 -25.43430438 -0.59331072 -20.875 -1.57421875 C-12.6324808 -3.4123942 -7.72565742 -3.46230806 0 0 Z " fill="#FAFAFF" transform="translate(248.125,183.1875)"/>
<path d="M0 0 C0 0.99 0 1.98 0 3 C-2 4.6875 -2 4.6875 -4 6 C-3.67 6 -3.34 6 -3 6 C-3 7.65 -3 9.3 -3 11 C-3.85118408 11.28198242 -4.70236816 11.56396484 -5.5793457 11.85449219 C-8.79102966 12.91931226 -12.00223117 13.98556454 -15.21313477 15.05273438 C-16.59283209 15.51097552 -17.97270972 15.96867423 -19.3527832 16.42578125 C-27.61408163 19.16254266 -35.84277263 21.96345413 -44 25 C-40.87600615 25 -38.98944988 24.42322369 -36.0625 23.390625 C-35.08410156 23.04773438 -34.10570312 22.70484375 -33.09765625 22.3515625 C-32.07542969 21.98804688 -31.05320312 21.62453125 -30 21.25 C-29.00871094 20.90195313 -28.01742187 20.55390625 -26.99609375 20.1953125 C-22.95382215 18.77234857 -18.91645536 17.34265954 -14.90234375 15.84179688 C-13.92394531 15.47634766 -12.94554687 15.11089844 -11.9375 14.734375 C-11.05964844 14.40147461 -10.18179688 14.06857422 -9.27734375 13.72558594 C-7 13 -7 13 -4 13 C-4.22119141 14.8815918 -4.22119141 14.8815918 -5 17 C-6.92333984 18.07739258 -6.92333984 18.07739258 -9.4609375 18.89453125 C-10.39719971 19.20632324 -11.33346191 19.51811523 -12.2980957 19.83935547 C-13.31347412 20.16049316 -14.32885254 20.48163086 -15.375 20.8125 C-17.50177927 21.51809454 -19.62807593 22.22514532 -21.75390625 22.93359375 C-23.3474292 23.45735596 -23.3474292 23.45735596 -24.97314453 23.99169922 C-29.11715906 25.37214607 -33.21827795 26.85413454 -37.3125 28.375 C-38.05330811 28.64900635 -38.79411621 28.9230127 -39.55737305 29.20532227 C-48.80210499 32.64407138 -57.99884888 36.21034275 -67.19921875 39.765625 C-68.19743652 40.14783203 -69.1956543 40.53003906 -70.22412109 40.92382812 C-71.95849957 41.59622393 -73.68671752 42.2850052 -75.40478516 42.99804688 C-79.09097829 44.49941947 -81.20088408 45.217632 -85 44 C-85 42.68 -85 41.36 -85 40 C-85.84304687 39.7525 -86.68609375 39.505 -87.5546875 39.25 C-91.34090152 37.87631691 -94.66960999 36.03258236 -98.125 34 C-104.3117462 30.43475642 -110.59221347 27.14948579 -117 24 C-125.85429191 19.63769116 -134.44180035 14.9125033 -143 10 C-144.83125997 8.97545194 -146.66420365 7.95389735 -148.5 6.9375 C-149.1909375 6.55464844 -149.881875 6.17179688 -150.59375 5.77734375 C-151.0578125 5.52082031 -151.521875 5.26429688 -152 5 C-152 4.34 -152 3.68 -152 3 C-146.04858665 4.61327568 -141.09563968 7.67084454 -135.8125 10.75 C-125.731636 16.54848736 -115.50136679 21.97194711 -105.13793945 27.24121094 C-99.82296521 29.95662964 -94.64801995 32.69258655 -89.69897461 36.03710938 C-87.82538354 37.09896355 -86.10178254 37.56957335 -84 38 C-84.99 35.03 -84.99 35.03 -86 32 C-84.02 32.495 -84.02 32.495 -82 33 C-81.75393005 32.36126953 -81.50786011 31.72253906 -81.2543335 31.06445312 C-80 29 -80 29 -78.14849854 28.29492188 C-77.41661316 28.18728516 -76.68472778 28.07964844 -75.93066406 27.96875 C-71.0049842 27.06563098 -66.71215528 25.43642698 -62.109375 23.5 C-54.08738386 20.21058895 -46.01689367 17.08516322 -37.890625 14.0625 C-36.77546509 13.64758301 -35.66030518 13.23266602 -34.51135254 12.80517578 C-31.09159282 11.53491262 -27.67082719 10.26738526 -24.25 9 C-21.88402969 8.12132232 -19.51814376 7.24241737 -17.15234375 6.36328125 C-11.43586262 4.23957574 -5.7183593 2.11864272 0 0 Z " fill="#9C86FF" transform="translate(340,219)"/>
<path d="M0 0 C4.22467804 1.53624656 6.69648049 3.1203882 9 7 C10.17266016 10.51798047 10.1458963 13.48066465 10.25 17.1875 C10.49892314 22.85575802 11.31027031 26.91208947 14.94140625 31.38671875 C16 33 16 33 16 37 C11.62573634 36.5139707 9.96133065 35.1638148 7 32 C6.23816406 32.433125 5.47632813 32.86625 4.69140625 33.3125 C-7.34228777 39.80258217 -7.34228777 39.80258217 -14 38 C-17.05372552 36.24120872 -19.39770342 34.20459315 -21 31 C-21.38482057 26.92090194 -21.44121857 24.70910127 -19.25 21.1875 C-14.6044591 16.6710019 -9.18142138 16.07307779 -2.99609375 14.78125 C0.15210539 14.13462592 0.15210539 14.13462592 3 12 C2.65555119 9.52733235 2.65555119 9.52733235 2 7 C-1.47015904 5.26492048 -5.22619087 5.25596303 -9 6 C-11.63844898 8.82857071 -11.63844898 8.82857071 -13 12 C-14.32 11.67 -15.64 11.34 -17 11 C-16.8123405 6.96532084 -16.20790966 5.24522677 -13.5625 2.125 C-9.40864716 -0.97787803 -4.95540027 -0.74129565 0 0 Z " fill="#6550DD" transform="translate(177,312)"/>
<path d="M0 0 C4.41391517 1.71529032 7.26259125 3.96301894 10 7.8125 C11.25642574 11.81735706 11.28373485 14.81491091 11 19 C10 20 10 20 7.40795898 20.11352539 C6.28204346 20.10828857 5.15612793 20.10305176 3.99609375 20.09765625 C2.78115234 20.09443359 1.56621094 20.09121094 0.31445312 20.08789062 C-0.96494141 20.07951172 -2.24433594 20.07113281 -3.5625 20.0625 C-4.84576172 20.05798828 -6.12902344 20.05347656 -7.45117188 20.04882812 C-10.63416022 20.03699545 -13.81705762 20.02051068 -17 20 C-16.57405412 21.44096586 -16.13373367 22.87768712 -15.6875 24.3125 C-15.44386719 25.11300781 -15.20023437 25.91351563 -14.94921875 26.73828125 C-13.94483945 29.13143193 -12.994434 30.36563216 -11 32 C-6.40078655 33.4629879 -2.92571129 33.43760897 1.4375 31.375 C4.04230458 28.96079088 5.05959669 27.38545193 6 24 C7.32 24.33 8.64 24.66 10 25 C9.75489645 29.16676032 9.40672124 31.47707269 6.8125 34.8125 C1.85928536 38.66500028 -2.7803112 39.65470408 -9 39 C-14.45396813 36.55511774 -17.51204141 33.82158982 -21 29 C-23.14729758 22.55810726 -23.18932451 14.60736528 -20.375 8.4375 C-13.9621182 1.85585815 -9.40504986 -1.20823998 0 0 Z " fill="#6450DC" transform="translate(141,311)"/>
<path d="M0 0 C1.90625 0.2734375 1.90625 0.2734375 4 1 C5.25663717 4.03687315 6.15438997 6.8383349 7 10 C7.35797545 11.31122453 7.71605533 12.62242055 8.07421875 13.93359375 C9.07592008 17.6160797 10.03515109 21.30695762 11 25 C13.97 13.615 13.97 13.615 17 2 C18.65 1.67 20.3 1.34 22 1 C22.79359736 3.3535311 23.58491783 5.70778883 24.375 8.0625 C24.70757812 9.04766602 24.70757812 9.04766602 25.046875 10.05273438 C26.48306019 14.34016957 27.78775047 18.6438323 29 23 C29.32613281 21.92621094 29.65226562 20.85242188 29.98828125 19.74609375 C30.42948531 18.30983371 30.87090299 16.87363927 31.3125 15.4375 C31.63250977 14.38079102 31.63250977 14.38079102 31.95898438 13.30273438 C33.37336478 8.72183069 35.03927385 4.37569678 37 0 C38.32 0.33 39.64 0.66 41 1 C39.76023399 9.63345713 37.80611553 17.87945182 35.375 26.25 C35.05015625 27.38824219 34.7253125 28.52648437 34.390625 29.69921875 C33.59957964 32.46787749 32.8026466 35.23468679 32 38 C30.02 38.495 30.02 38.495 28 39 C25.2011354 30.70297056 22.45227055 22.40762722 20 14 C19.79636841 14.86951294 19.79636841 14.86951294 19.58862305 15.7565918 C18.96373115 18.40239943 18.32575104 21.04488465 17.6875 23.6875 C17.47416016 24.59951172 17.26082031 25.51152344 17.04101562 26.45117188 C14.82371975 35.55201316 14.82371975 35.55201316 12 39 C11.01 39 10.02 39 9 39 C6.1199206 31.12213577 3.85479681 23.09794701 1.6875 15 C1.26960205 13.47717407 1.26960205 13.47717407 0.84326172 11.92358398 C0.58947754 10.95880127 0.33569336 9.99401855 0.07421875 9 C-0.27249878 7.700625 -0.27249878 7.700625 -0.6262207 6.375 C-1.01694413 3.89233673 -0.79363945 2.36144464 0 0 Z " fill="#6550DD" transform="translate(294,311)"/>
<path d="M0 0 C3.57457716 1.03474602 6.82732959 2.36688933 10.125 4.0625 C15.25343562 6.68869286 20.48739551 9.03431626 25.75 11.375 C33.95390393 15.0307049 42.01468964 18.88835841 50 23 C50 23.99 50 24.98 50 26 C46.21695854 25.37484181 43.03051622 24.27237484 39.53515625 22.70703125 C38.49367432 22.24401611 37.45219238 21.78100098 36.37915039 21.30395508 C35.28465576 20.8117749 34.19016113 20.31959473 33.0625 19.8125 C30.81266732 18.81212362 28.56266827 17.8121213 26.3125 16.8125 C24.68634766 16.08740234 24.68634766 16.08740234 23.02734375 15.34765625 C19.21391201 13.65006406 15.39374312 11.9694667 11.5625 10.3125 C10.51191406 9.85488281 9.46132812 9.39726562 8.37890625 8.92578125 C6.11481013 7.87911074 6.11481013 7.87911074 4 8 C4.94617188 8.4125 5.89234375 8.825 6.8671875 9.25 C20.95617896 15.39916945 35.02419398 21.59698755 49 28 C49 29.65 49 31.3 49 33 C45.39993222 31.59440725 41.88983845 30.0573994 38.38671875 28.42578125 C37.31019043 27.92594727 36.23366211 27.42611328 35.12451172 26.91113281 C33.42319092 26.11980957 33.42319092 26.11980957 31.6875 25.3125 C21.84393897 20.74907828 11.97100505 16.27759129 2 12 C3.55212806 15.10425612 5.99728352 15.15653361 9.25 16.25 C17.19585468 19.07904008 24.8309643 22.55976513 32.44152832 26.17810059 C33.77216221 26.80936027 35.10527173 27.43542779 36.4407959 28.05627441 C38.34160863 28.94214156 40.2321534 29.84695362 42.12109375 30.7578125 C43.78289673 31.54889404 43.78289673 31.54889404 45.47827148 32.35595703 C48 34 48 34 48.86743164 36.20263672 C48.9111792 36.7957666 48.95492676 37.38889648 49 38 C42.46929239 35.95045367 36.20841815 33.48646451 29.9375 30.75 C28.57637085 30.16001221 28.57637085 30.16001221 27.18774414 29.55810547 C25.3432598 28.75801404 23.49942016 27.95643458 21.65625 27.15332031 C19.18138916 26.07875757 16.70141269 25.01732301 14.21875 23.9609375 C12.79158921 23.34913899 11.36450122 22.73717062 9.9375 22.125 C9.28966553 21.85139648 8.64183105 21.57779297 7.97436523 21.29589844 C1.53613067 18.51114416 1.53613067 18.51114416 -1 16 C-1.42578125 13.984375 -1.42578125 13.984375 -1.3125 11.75 C-1.27769531 10.96238281 -1.24289063 10.17476562 -1.20703125 9.36328125 C-0.9307465 6.20946473 -0.53130629 3.12142446 0 0 Z " fill="#F1E2FF" transform="translate(203,191)"/>
<path d="M0 0 C1.9375 0.25 1.9375 0.25 4 1 C6.42479736 4.63719605 6.38662577 6.85703482 6.625 11.1875 C6.69976562 12.45980469 6.77453125 13.73210937 6.8515625 15.04296875 C6.92503906 16.50669922 6.92503906 16.50669922 7 18 C7.4846875 17.566875 7.969375 17.13375 8.46875 16.6875 C14.63372957 11.56582467 14.63372957 11.56582467 19.1875 11.375 C23.41531035 12.06808366 25.08404043 12.9125134 28 16 C30.35611761 19.58704789 30.23110526 22.72957878 30.1953125 26.953125 C30.1924826 27.61334656 30.18965271 28.27356812 30.18673706 28.95379639 C30.17558415 31.05271897 30.15048946 33.15120742 30.125 35.25 C30.11496384 36.67707715 30.1058391 38.10416102 30.09765625 39.53125 C30.07566111 43.02097328 30.04116536 46.51044423 30 50 C28.0625 50.5625 28.0625 50.5625 26 51 C24.15456374 49.15456374 24.803657 46.13953928 24.75390625 43.6640625 C24.72103516 42.37242187 24.68816406 41.08078125 24.65429688 39.75 C24.60690211 37.68722262 24.56248993 35.62447157 24.52319336 33.56152344 C24.48344707 31.57468521 24.43133993 29.58810639 24.37890625 27.6015625 C24.3538501 26.40869629 24.32879395 25.21583008 24.30297852 23.98681641 C24.2169025 20.81846529 24.2169025 20.81846529 22 18 C17.89128321 18.24168922 15.54614758 18.57797687 12.25 21.125 C7.2914131 27.46097215 6.52054161 33.12107961 6.3125 40.9375 C6.27833984 41.81212891 6.24417969 42.68675781 6.20898438 43.58789062 C6.12724343 45.72483254 6.0619287 47.86239218 6 50 C4.0625 50.5625 4.0625 50.5625 2 51 C0.4690268 49.4690268 0.84553305 48.06130852 0.81054688 45.92675781 C0.79382935 45.06205872 0.77711182 44.19735962 0.7598877 43.30645752 C0.73952454 41.89405792 0.73952454 41.89405792 0.71875 40.453125 C0.70034058 39.48977234 0.68193115 38.52641968 0.66296387 37.53387451 C0.60401509 34.43931384 0.55132245 31.34469599 0.5 28.25 C0.43224993 24.19259414 0.35847595 20.13536023 0.28125 16.078125 C0.26767456 15.14462219 0.25409912 14.21111938 0.2401123 13.24932861 C0.15950404 9.01914291 -0.09880473 5.14759405 -1 1 C-0.67 0.67 -0.34 0.34 0 0 Z " fill="#634FDC" transform="translate(388,299)"/>
<path d="M0 0 C1.31097656 0.01353516 1.31097656 0.01353516 2.6484375 0.02734375 C3.30070312 0.03894531 3.95296875 0.05054687 4.625 0.0625 C5.12 2.0425 5.12 2.0425 5.625 4.0625 C4.635 4.3925 3.645 4.7225 2.625 5.0625 C2.625 6.7125 2.625 8.3625 2.625 10.0625 C-11.30543357 13.36888002 -25.19072827 15.22794047 -39.41894531 16.73779297 C-45.41943783 17.39691545 -51.39727101 18.22403966 -57.375 19.0625 C-57.375 18.4025 -57.375 17.7425 -57.375 17.0625 C-45.46812659 14.51516242 -33.45839946 12.9689 -21.38061523 11.50878906 C-14.60320349 10.67383836 -8.00646059 9.70034702 -1.375 8.0625 C-14.56889424 9.15654051 -14.56889424 9.15654051 -27.625 11.25 C-32.17629024 12.17751413 -35.81922834 11.92207956 -40.375 11.0625 C-40.375 10.7325 -40.375 10.4025 -40.375 10.0625 C-39.35664063 9.92150879 -38.33828125 9.78051758 -37.2890625 9.63525391 C-33.47903732 9.10658278 -29.6698329 8.57218535 -25.86083984 8.03613281 C-24.21815169 7.80574991 -22.5752504 7.57688103 -20.93212891 7.34960938 C-18.55833001 7.02099605 -16.18537348 6.68678519 -13.8125 6.3515625 C-13.08820801 6.25251617 -12.36391602 6.15346985 -11.61767578 6.05142212 C-6.76822383 5.3590917 -2.1112186 4.31647914 2.625 3.0625 C-4.62159041 2.71697958 -11.58131978 3.88310626 -18.7142334 5.02816772 C-22.38562905 5.6174764 -26.05975873 6.18897545 -29.734375 6.7578125 C-30.46763 6.87148666 -31.20088501 6.98516083 -31.95635986 7.10227966 C-39.63992964 8.27965255 -47.34941031 9.22653406 -55.07617188 10.07348633 C-61.53033235 10.62626928 -61.53033235 10.62626928 -67.375 13.0625 C-68.91577225 15.49686077 -70.12600722 17.71587596 -71.3125 20.3125 C-71.65458496 21.03050781 -71.99666992 21.74851563 -72.34912109 22.48828125 C-73.37914903 24.67053567 -74.38173209 26.86330103 -75.375 29.0625 C-75.91511719 30.25359375 -76.45523438 31.4446875 -77.01171875 32.671875 C-79.91260616 39.28072085 -82.49265263 45.98147079 -84.98706055 52.75 C-89.5034757 64.90611516 -94.74776768 76.79634426 -100.02905273 88.63671875 C-101.98724212 93.05678503 -103.70961108 97.52644069 -105.375 102.0625 C-105.705 102.0625 -106.035 102.0625 -106.375 102.0625 C-106.5 96.3125 -106.5 96.3125 -105.375 94.0625 C-106.035 93.7325 -106.695 93.4025 -107.375 93.0625 C-105.89 92.5675 -105.89 92.5675 -104.375 92.0625 C-102.85799165 89.33712875 -102.85799165 89.33712875 -101.51953125 85.921875 C-101.25705597 85.29240463 -100.99458069 84.66293427 -100.72415161 84.01438904 C-99.86765992 81.95142451 -99.02748466 79.88223432 -98.1875 77.8125 C-97.59714258 76.3816254 -97.00607398 74.95104402 -96.41430664 73.52075195 C-93.23968913 65.81433966 -90.20309773 58.06775296 -87.3125 50.25 C-84.2617743 42.0387935 -80.80879445 34.03793715 -77.1875 26.0625 C-76.68790771 24.94512451 -76.18831543 23.82774902 -75.67358398 22.67651367 C-75.18962158 21.62826416 -74.70565918 20.58001465 -74.20703125 19.5 C-73.78139893 18.57058594 -73.3557666 17.64117187 -72.91723633 16.68359375 C-70.31879706 12.26743988 -68.02546767 9.54404652 -63.01953125 8.08349609 C-61.75496094 7.91930176 -60.49039063 7.75510742 -59.1875 7.5859375 C-58.49605896 7.49005341 -57.80461792 7.39416931 -57.09222412 7.29537964 C-54.85528179 6.98970526 -52.61577974 6.71348871 -50.375 6.4375 C-48.83468743 6.23218481 -47.29464696 6.02481813 -45.75488281 5.81542969 C-42.70439016 5.40328583 -39.65282777 5.00178344 -36.59960938 4.61035156 C-31.09959743 3.90285424 -25.61262788 3.10957997 -20.125 2.3125 C-18.53649308 2.08829538 -16.94795434 1.86431598 -15.359375 1.640625 C-12.94736931 1.29987776 -10.5634542 0.91736955 -8.1640625 0.48828125 C-5.39200349 0.06509577 -2.8008831 -0.03784977 0 0 Z " fill="#A18BFF" transform="translate(260.375,109.9375)"/>
<path d="M0 0 C6.66699131 2.25088842 12.43889892 5.38990724 18.5 8.9375 C27.70808342 14.24378981 37.05990469 19.11615828 46.59570312 23.8034668 C54.24889563 27.57984692 61.67721541 31.61664303 69 36 C69 37.32 69 38.64 69 40 C65.23798549 39.41833981 62.49872385 38.36082249 59.21875 36.4453125 C58.30472412 35.91832764 57.39069824 35.39134277 56.44897461 34.84838867 C55.47581299 34.27967041 54.50265137 33.71095215 53.5 33.125 C45.72413824 28.6490748 37.90857571 24.30621932 29.9375 20.1875 C22.76008471 16.47448925 15.69585165 12.6287329 8.71484375 8.55859375 C6.5049511 7.28989279 4.29428036 6.10587614 2 5 C2 5.66 2 6.32 2 7 C2.8669751 7.26409668 3.7339502 7.52819336 4.62719727 7.80029297 C7.98640872 8.99516558 10.86329599 10.4441137 13.96484375 12.1953125 C15.08697266 12.82477783 16.20910156 13.45424316 17.36523438 14.1027832 C17.94877686 14.43315582 18.53231934 14.76352844 19.13354492 15.10391235 C22.17561891 16.82580898 25.22732402 18.53051285 28.27734375 20.23828125 C28.87163177 20.57170029 29.4659198 20.90511932 30.07821655 21.24864197 C36.66322501 24.94061525 43.31634951 28.49053593 50 32 C51.70713373 32.89954512 53.41415699 33.79929992 55.12109375 34.69921875 C59.74560677 37.13622209 64.37211623 39.56940454 69 42 C69 42.66 69 43.32 69 44 C62.78722258 42.07208634 56.9242877 39.75232499 51.0625 36.9375 C50.24620117 36.54828369 49.42990234 36.15906738 48.58886719 35.75805664 C41.33370194 32.25120733 34.30395931 28.39152101 27.30078125 24.41015625 C24.5155525 22.83104501 21.71108423 21.31898269 18.85546875 19.87109375 C3.46434775 12.06135019 3.46434775 12.06135019 -1 6 C-1.28515625 3.32421875 -1.28515625 3.32421875 -1 1 C-0.67 0.67 -0.34 0.34 0 0 Z " fill="#F0E1FF" transform="translate(186,223)"/>
<path d="M0 0 C2.375 0.6875 2.375 0.6875 5 2 C6.3125 4.625 6.3125 4.625 7 7 C7.48210937 6.57847656 7.96421875 6.15695312 8.4609375 5.72265625 C9.09257812 5.17480469 9.72421875 4.62695312 10.375 4.0625 C11.31472656 3.24458984 11.31472656 3.24458984 12.2734375 2.41015625 C15.79070043 -0.4625404 18.51402232 -0.44859777 23 0 C26.47998516 2.00292479 28.7068445 4.12053349 30 8 C30.08378628 10.2838517 30.10729915 12.570101 30.09765625 14.85546875 C30.0962413 15.51710526 30.09482635 16.17874176 30.09336853 16.86042786 C30.08777996 18.96949828 30.07522965 21.07846177 30.0625 23.1875 C30.05748352 24.61913909 30.05292087 26.05077985 30.04882812 27.48242188 C30.0378143 30.98831588 30.02055755 34.4941475 30 38 C28.0625 38.5625 28.0625 38.5625 26 39 C24.15456374 37.15456374 24.803657 34.13953928 24.75390625 31.6640625 C24.72103516 30.37242187 24.68816406 29.08078125 24.65429688 27.75 C24.60690211 25.68722262 24.56248993 23.62447157 24.52319336 21.56152344 C24.48344707 19.57468521 24.43133993 17.58810639 24.37890625 15.6015625 C24.3538501 14.40869629 24.32879395 13.21583008 24.30297852 11.98681641 C24.2169025 8.81846529 24.2169025 8.81846529 22 6 C17.53095996 6.17525647 15.53896084 6.48553738 12.25 9.625 C7.47205284 15.71520025 6.52352237 21.95524958 6.3125 29.4375 C6.27833984 30.26443359 6.24417969 31.09136719 6.20898438 31.94335938 C6.12731379 33.96178944 6.06196276 35.98086884 6 38 C4.0625 38.5625 4.0625 38.5625 2 39 C0.0838798 37.0838798 0.77786511 33.62196139 0.71875 31.078125 C0.69113586 30.03262482 0.69113586 30.03262482 0.66296387 28.96600342 C0.60405223 26.72742383 0.55136103 24.48876478 0.5 22.25 C0.43208411 19.31755678 0.35827388 16.38534137 0.28125 13.453125 C0.25095703 12.14504883 0.22066406 10.83697266 0.18945312 9.48925781 C0.02912464 6.53640384 -0.42213079 3.88531441 -1 1 C-0.67 0.67 -0.34 0.34 0 0 Z " fill="#6550DD" transform="translate(233,311)"/>
<path d="M0 0 C-7.65596953 7.65596953 -28.67067741 6.55033718 -38.91601562 7.65917969 C-43.1576483 8.12793517 -47.39174602 8.64889183 -51.625 9.1875 C-52.87539062 9.34605469 -54.12578125 9.50460938 -55.4140625 9.66796875 C-56.26742187 9.77753906 -57.12078125 9.88710937 -58 10 C-58 10.66 -58 11.32 -58 12 C-56.74574219 11.7009375 -55.49148437 11.401875 -54.19921875 11.09375 C-48.77338162 9.88918659 -43.32532819 9.17606255 -37.8125 8.5 C-35.77336818 8.24143152 -33.73430533 7.98231854 -31.6953125 7.72265625 C-30.71723633 7.59906738 -29.73916016 7.47547852 -28.73144531 7.34814453 C-21.29431874 6.40022332 -13.88348518 5.45152653 -6.5625 3.8125 C-2.37044477 2.91865682 0.82296196 3.09194825 5 4 C2.22537121 5.52454276 -0.10536667 6.32872166 -3.23828125 6.74609375 C-4.05071289 6.85961182 -4.86314453 6.97312988 -5.70019531 7.09008789 C-6.99328613 7.26205688 -6.99328613 7.26205688 -8.3125 7.4375 C-14.50670849 8.30747937 -20.62961744 9.26918544 -26.75 10.5625 C-34.45271209 12.17252783 -42.18636362 13.12725481 -50 14 C-37.20360665 13.43622911 -24.70504215 11.05584668 -12.11010742 8.86035156 C-9.25315506 8.36464856 -6.3943695 7.88090171 -3.53515625 7.3984375 C-2.66633316 7.24329681 -1.79751007 7.08815613 -0.90235901 6.92831421 C3.68751631 6.16008296 7.39731239 5.87538678 12 7 C9.71860621 9.28139379 9.07377204 9.33073552 5.984375 9.7109375 C4.74167847 9.87348022 4.74167847 9.87348022 3.47387695 10.03930664 C2.12555786 10.20547485 2.12555786 10.20547485 0.75 10.375 C-7.10231464 11.41611179 -14.89761126 12.62554326 -22.6875 14.0625 C-23.57018555 14.22476074 -24.45287109 14.38702148 -25.36230469 14.55419922 C-30.49696409 15.50883106 -35.61675838 16.52194777 -40.72949219 17.58789062 C-48.0720455 18.92060353 -52.72445197 18.16620357 -59.15234375 14.2890625 C-61 13 -61 13 -63 11 C-63 10.01 -63 9.02 -63 8 C-55.84101483 5.92789622 -48.71791754 5.25010444 -41.3125 4.5625 C-31.3091218 3.58882606 -21.36710906 2.45609521 -11.43481445 0.91430664 C-7.58143009 0.32382714 -3.914081 -0.16571714 0 0 Z " fill="#EEDFFF" transform="translate(261,117)"/>
<path d="M0 0 C1.9375 0.25 1.9375 0.25 4 1 C6.92332269 5.38498404 6.1356502 8.7774672 6 14 C9.63 14 13.26 14 17 14 C17.33 15.65 17.66 17.3 18 19 C14.04 19 10.08 19 6 19 C6.08714685 22.23044366 6.19405433 25.45817937 6.3125 28.6875 C6.33505859 29.59951172 6.35761719 30.51152344 6.38085938 31.45117188 C6.61778105 38.2375899 6.61778105 38.2375899 10 44 C13.0957107 44.89207179 13.0957107 44.89207179 16 45 C18.50298434 42.06171403 19.46930939 39.82097239 20 36 C21.65 36.33 23.3 36.66 25 37 C24.53579745 41.73486599 23.9390105 45.19017158 21 49 C17.25331157 51.32967165 14.46107247 51.25335152 10.19140625 50.68359375 C6.41710906 49.50622832 5.12521689 47.25423837 3 44 C1.72138385 41.44276771 1.88663391 39.63262898 1.90234375 36.7734375 C1.90556641 35.7421875 1.90878906 34.7109375 1.91210938 33.6484375 C1.92048828 32.56820312 1.92886719 31.48796875 1.9375 30.375 C1.94201172 29.28703125 1.94652344 28.1990625 1.95117188 27.078125 C1.96298224 24.38536211 1.97945222 21.69270812 2 19 C-0.64 19 -3.28 19 -6 19 C-6 17.35 -6 15.7 -6 14 C-3.69 14 -1.38 14 1 14 C0.85769192 12.58297487 0.71099254 11.1663904 0.5625 9.75 C0.48128906 8.96109375 0.40007812 8.1721875 0.31640625 7.359375 C0.05128191 5.0012079 0.05128191 5.0012079 -0.59765625 2.765625 C-0.73042969 2.18296875 -0.86320312 1.6003125 -1 1 C-0.67 0.67 -0.34 0.34 0 0 Z " fill="#634FDC" transform="translate(358,299)"/>
<path d="M0 0 C1.32 0.33 2.64 0.66 4 1 C4 2.32 4 3.64 4 5 C4.556875 4.649375 5.11375 4.29875 5.6875 3.9375 C8.6123095 2.75176642 10.00750241 3.10225072 13 4 C13.66 4.37125 14.32 4.7425 15 5.125 C17.64977777 6.28427778 19.26937322 5.75850744 22 5 C22.33 6.65 22.66 8.3 23 10 C23.99 9.34 24.98 8.68 26 8 C28.6875 7.875 28.6875 7.875 31 8 C31.495 10.475 31.495 10.475 32 13 C32.99 12.34 33.98 11.68 35 11 C38.1875 11.375 38.1875 11.375 41 12 C41 12.66 41 13.32 41 14 C39.15567782 14.87522021 37.29893213 15.72428455 35.4375 16.5625 C34.40496094 17.03816406 33.37242187 17.51382813 32.30859375 18.00390625 C24.54785746 20.34037349 17.15911811 16.40288353 9.9375 13.625 C8.87466797 13.22539062 7.81183594 12.82578125 6.71679688 12.4140625 C1.67459639 10.49922309 -3.24633871 8.55396014 -8 6 C-8 5.01 -8 4.02 -8 3 C-5.03 3.495 -5.03 3.495 -2 4 C-1.34 2.68 -0.68 1.36 0 0 Z " fill="#F3E5FF" transform="translate(268,175)"/>
<path d="M0 0 C2.45038714 0.33798443 3.76793653 0.79037622 5.6184082 2.46191406 C7.72979271 6.34068299 7.36974694 10.01475289 7.29296875 14.359375 C7.28872391 15.26375305 7.28447906 16.1681311 7.28010559 17.09991455 C7.26333574 19.98358139 7.22568669 22.866545 7.1875 25.75 C7.17245097 27.70702114 7.15876295 29.66405326 7.14648438 31.62109375 C7.11343774 36.41433275 7.06166705 41.20704721 7 46 C7.90213478 45.8934182 7.90213478 45.8934182 8.82249451 45.78468323 C9.6202681 45.69275192 10.41804169 45.60082062 11.23999023 45.50610352 C12.02703842 45.41442398 12.81408661 45.32274445 13.62498474 45.22828674 C17.12187667 44.89216508 20.54848216 44.90584218 24.0625 44.9375 C26.02896484 44.95103516 26.02896484 44.95103516 28.03515625 44.96484375 C29.01355469 44.97644531 29.99195312 44.98804688 31 45 C31 46.32 31 47.64 31 49 C24.27195875 50.62751754 17.77104573 51.19330536 10.875 51.1875 C9.73720093 51.1884668 9.73720093 51.1884668 8.57641602 51.18945312 C3.1349956 51.1349956 3.1349956 51.1349956 2 50 C1.88838422 48.62970359 1.84332347 47.25388108 1.82641602 45.87915039 C1.81292618 45.00476822 1.79943634 44.13038605 1.78553772 43.22950745 C1.77509933 42.27849655 1.76466095 41.32748566 1.75390625 40.34765625 C1.72097293 38.35481323 1.6877612 36.3619748 1.65429688 34.36914062 C1.60680865 31.21105056 1.56238187 28.05297978 1.52319336 24.89477539 C1.48360124 21.85803644 1.43202845 18.82168432 1.37890625 15.78515625 C1.36628502 14.36167625 1.36628502 14.36167625 1.35340881 12.90943909 C1.33676682 12.03190475 1.32012482 11.15437042 1.30297852 10.25024414 C1.29267105 9.4760463 1.28236359 8.70184845 1.27174377 7.90419006 C1.16008597 5.76000819 1.16008597 5.76000819 -1 4 C-0.625 1.875 -0.625 1.875 0 0 Z " fill="#624DDC" transform="translate(83,299)"/>
<path d="M0 0 C3.25543229 0.34879632 4.01873107 1.02133261 6.25 3.5625 C7.11625 4.7690625 7.11625 4.7690625 8 6 C8.78375 5.195625 9.5675 4.39125 10.375 3.5625 C13.66088455 0.3548508 14.20332644 0.06530111 18.8125 -0.3125 C22.03706396 -0.27153458 22.99286634 -0.00434223 25.875 1.75 C29.16010499 5.22834646 29.16010499 5.22834646 30 8 C29.625 10.75 29.625 10.75 29 13 C27.68 13 26.36 13 25 13 C24.01 10.69 23.02 8.38 22 6 C17.42831393 6.17928181 15.51756149 6.49393987 12.1875 9.75 C8.02467575 15.93476746 7.62236927 21.02026008 7.375 28.3125 C7.31699219 29.70952148 7.31699219 29.70952148 7.2578125 31.13476562 C7.16393687 33.42298407 7.07825491 35.71120295 7 38 C5.0625 38.5625 5.0625 38.5625 3 39 C1.08824494 37.08824494 1.79345177 33.58111544 1.75390625 30.97265625 C1.72097115 29.52668658 1.68775945 28.08072319 1.65429688 26.63476562 C1.606831 24.3458281 1.56240436 22.05691667 1.52319336 19.76782227 C1.48355623 17.56499455 1.43199444 15.36269499 1.37890625 13.16015625 C1.3704921 12.47365494 1.36207794 11.78715363 1.35340881 11.07984924 C1.3455969 7.09579267 1.3455969 7.09579267 -1 4 C-0.625 1.875 -0.625 1.875 0 0 Z " fill="#624DDC" transform="translate(198,311)"/>
<path d="M0 0 C1.1856958 0.35578125 2.3713916 0.7115625 3.59301758 1.078125 C13.16715567 3.97156163 22.67076405 7.04986171 32.125 10.3125 C28.75327703 12.56031532 26.09947814 13.54549545 22.125 14.3125 C20.0625 12.9375 20.0625 12.9375 18.125 11.3125 C17.09375 11.3125 16.0625 11.3125 15 11.3125 C14.05125 11.3125 13.1025 11.3125 12.125 11.3125 C11.465 10.3225 10.805 9.3325 10.125 8.3125 C6.54142759 8.06234127 6.54142759 8.06234127 3.125 8.3125 C2.63 6.8275 2.63 6.8275 2.125 5.3125 C0.84625 5.51875 -0.4325 5.725 -1.75 5.9375 C-3.9296875 6.2890625 -3.9296875 6.2890625 -5.875 6.3125 C-6.535 5.6525 -7.195 4.9925 -7.875 4.3125 C-9.03 4.333125 -10.185 4.35375 -11.375 4.375 C-12.53 4.354375 -13.685 4.33375 -14.875 4.3125 C-15.535 3.3225 -16.195 2.3325 -16.875 1.3125 C-19.375 0.89583333 -19.375 0.89583333 -21.875 1.3125 C-22.535 1.9725 -23.195 2.6325 -23.875 3.3125 C-25.875 3.64583333 -27.875 3.97916667 -29.875 4.3125 C-30.535 4.9725 -31.195 5.6325 -31.875 6.3125 C-34.515 5.3225 -37.155 4.3325 -39.875 3.3125 C-37.00382342 0.44132342 -33.49634454 -0.52109147 -29.75 -1.875 C-28.64785156 -2.30329102 -28.64785156 -2.30329102 -27.5234375 -2.74023438 C-17.81917076 -6.25119708 -9.5077419 -2.89079089 0 0 Z " fill="#F9A5DD" transform="translate(288.875,173.6875)"/>
<path d="M0 0 C-0.15185547 1.86523438 -0.15185547 1.86523438 -1 4 C-3.37548828 5.18164062 -3.37548828 5.18164062 -6.5703125 6.15625 C-7.76197021 6.53297852 -8.95362793 6.90970703 -10.18139648 7.29785156 C-11.14394852 7.59085144 -11.14394852 7.59085144 -12.12594604 7.88977051 C-15.5482754 8.93446782 -18.9516101 10.03748046 -22.35546875 11.140625 C-23.41862053 11.48392853 -23.41862053 11.48392853 -24.50325012 11.83416748 C-32.25467876 14.36353908 -39.84862864 17.27356532 -47.4375 20.25 C-48.06182922 20.49403564 -48.68615845 20.73807129 -49.32940674 20.98950195 C-57.74660809 24.28282656 -57.74660809 24.28282656 -66.10205078 27.72851562 C-67.1194912 28.15266754 -67.1194912 28.15266754 -68.15748596 28.58538818 C-70.05506743 29.3779809 -71.94773635 30.18230515 -73.84008789 30.98730469 C-76.89561851 31.9665476 -78.10045269 32.21906134 -81 31 C-81 30.34 -81 29.68 -81 29 C-70.24188902 24.39272204 -59.46833475 19.9345258 -48.47705078 15.91162109 C-45.48985369 14.81225248 -42.50868234 13.69718843 -39.52734375 12.58203125 C-5.84019642 0 -5.84019642 0 0 0 Z " fill="#F0E1FF" transform="translate(338,237)"/>
<path d="M0 0 C0 1.65 0 3.3 0 5 C-0.825 5.27150879 -1.65 5.54301758 -2.5 5.82275391 C-21.00176238 11.92203746 -39.29849031 18.27644319 -57.37890625 25.546875 C-60.95583808 26.98227806 -64.53598347 28.40757564 -68.125 29.8125 C-69.13820313 30.21082031 -70.15140625 30.60914063 -71.1953125 31.01953125 C-73.79694244 31.9290147 -76.2871262 32.5379171 -79 33 C-78.76245117 31.12060547 -78.76245117 31.12060547 -78 29 C-76.1809082 27.90673828 -76.1809082 27.90673828 -73.80078125 27.0703125 C-72.49149658 26.59416504 -72.49149658 26.59416504 -71.15576172 26.10839844 C-70.21748535 25.78387695 -69.27920898 25.45935547 -68.3125 25.125 C-66.38326001 24.42683611 -64.45487392 23.72630818 -62.52734375 23.0234375 C-61.58101074 22.68151367 -60.63467773 22.33958984 -59.65966797 21.98730469 C-56.17165454 20.69250697 -52.78154202 19.24629605 -49.375 17.75 C-43.65402057 15.25503593 -37.88992738 13.0592034 -32 11 C-30.65342336 10.52145888 -29.30708697 10.04224143 -27.9609375 9.5625 C-20.40855529 6.87658779 -12.84427386 4.24634512 -5.22265625 1.76171875 C-0.08205128 0 -0.08205128 0 0 0 Z " fill="#F2E4FF" transform="translate(337,225)"/>
<path d="M0 0 C-0.22119141 1.8815918 -0.22119141 1.8815918 -1 4 C-2.92333984 5.07739258 -2.92333984 5.07739258 -5.4609375 5.89453125 C-6.39719971 6.20632324 -7.33346191 6.51811523 -8.2980957 6.83935547 C-9.31347412 7.16049316 -10.32885254 7.48163086 -11.375 7.8125 C-13.50177927 8.51809454 -15.62807593 9.22514532 -17.75390625 9.93359375 C-19.3474292 10.45735596 -19.3474292 10.45735596 -20.97314453 10.99169922 C-25.11717167 12.37215027 -29.21816141 13.85442577 -33.3125 15.375 C-34.0547583 15.64900635 -34.7970166 15.9230127 -35.56176758 16.20532227 C-40.25933426 17.95010461 -44.93679606 19.74409652 -49.609375 21.5546875 C-50.76010498 22.00021973 -51.91083496 22.44575195 -53.09643555 22.90478516 C-55.34680832 23.7781777 -57.59575959 24.65524507 -59.84301758 25.53662109 C-66.15770893 27.99187376 -72.47392654 30.17572169 -79 32 C-78.67 30.35 -78.34 28.7 -78 27 C-77.11699219 26.76925781 -76.23398437 26.53851563 -75.32421875 26.30078125 C-68.69302028 24.49874772 -62.49252686 22.44909372 -56.28125 19.48046875 C-43.8853227 13.88754441 -30.9074055 9.52848197 -17.98828125 5.3203125 C-13.63226474 3.89628997 -9.34312917 2.31050043 -5.06640625 0.6640625 C-3 0 -3 0 0 0 Z " fill="#F2E4FF" transform="translate(336,232)"/>
<path d="M0 0 C0 0.33 0 0.66 0 1 C-1.7325 1.37125 -1.7325 1.37125 -3.5 1.75 C-18.50757159 5.01984654 -18.50757159 5.01984654 -33 10 C-24.64631905 14.60973431 -16.32408024 18.85917565 -7.48046875 22.4765625 C-5.00332914 23.56083236 -2.71747422 24.66081382 -0.36328125 25.9609375 C7.91928101 30.67859602 7.91928101 30.67859602 17.1640625 30.92578125 C22.55648695 29.16544434 27.76104501 26.97702504 32.94921875 24.69140625 C36.57389074 23.1171589 40.17801415 21.996822 44 21 C44 21.66 44 22.32 44 23 C41.00113445 24.27352186 38.0007028 25.54331385 35 26.8125 C34.16082031 27.16892578 33.32164062 27.52535156 32.45703125 27.89257812 C27.3449602 30.05232907 22.21007979 32.08843137 17 34 C17 35.32 17 36.64 17 38 C16.34 38 15.68 38 15 38 C15 37.01 15 36.02 15 35 C13.91585815 34.82235107 13.91585815 34.82235107 12.80981445 34.64111328 C9.94315284 33.98702923 7.67669579 33.0378461 5.04296875 31.7421875 C3.63241211 31.05588257 3.63241211 31.05588257 2.19335938 30.35571289 C0.70545898 29.62276001 0.70545898 29.62276001 -0.8125 28.875 C-9.00657863 24.88846443 -17.22798971 21.07312071 -25.625 17.53515625 C-29.24294959 15.88949168 -32.5796886 14.01990329 -36 12 C-36 14.31 -36 16.62 -36 19 C-38 17 -38 17 -38.375 13.5625 C-38 10 -38 10 -36.25244141 8.37109375 C-34.01533771 7.00933629 -32.09574389 6.22153578 -29.5859375 5.5 C-28.74160156 5.2525 -27.89726562 5.005 -27.02734375 4.75 C-26.15207031 4.5025 -25.27679688 4.255 -24.375 4 C-23.52292969 3.7525 -22.67085937 3.505 -21.79296875 3.25 C-20.0706434 2.7497179 -18.34633057 2.25622843 -16.62011719 1.76953125 C-14.82294077 1.24169859 -13.03704809 0.67432094 -11.26269531 0.07421875 C-10.38452148 -0.21839844 -9.50634766 -0.51101562 -8.6015625 -0.8125 C-7.81346191 -1.08707031 -7.02536133 -1.36164063 -6.21337891 -1.64453125 C-3.47971308 -2.0835581 -2.30547017 -1.44626016 0 0 Z " fill="#9A84FF" transform="translate(239,179)"/>
<path d="M0 0 C-1.35641557 4.0692467 -3.91805928 4.91885586 -7.53125 6.77734375 C-8.20071655 7.12731918 -8.87018311 7.47729462 -9.55993652 7.83787537 C-16.98958951 11.63615992 -24.70111662 14.62177339 -32.5 17.5625 C-35.28394009 18.61938418 -38.06509601 19.68320184 -40.84375 20.75390625 C-41.51833252 21.0129776 -42.19291504 21.27204895 -42.88793945 21.53897095 C-48.46483188 23.71481919 -53.87406329 26.19167444 -59.24255371 28.83851624 C-62.04644848 30.2005501 -63.83476553 31 -67 31 C-66.83374023 28.65991211 -66.83374023 28.65991211 -66 26 C-63.68383789 24.56079102 -63.68383789 24.56079102 -60.66015625 23.44140625 C-59.56848145 23.02777832 -58.47680664 22.61415039 -57.35205078 22.18798828 C-56.24587402 21.79595215 -55.13969727 21.40391602 -54 21 C-53.04464355 20.65565918 -52.08928711 20.31131836 -51.10498047 19.95654297 C-48.22128327 18.93388032 -45.3296713 17.93591735 -42.4375 16.9375 C-31.5243375 13.10698581 -21.01445538 8.61961542 -10.50756836 3.81030273 C-9.42354736 3.31473877 -8.33952637 2.8191748 -7.22265625 2.30859375 C-6.26109619 1.86314209 -5.29953613 1.41769043 -4.30883789 0.95874023 C-2 0 -2 0 0 0 Z " fill="#EFE1FF" transform="translate(321,192)"/>
<path d="M0 0 C0.495 1.98 0.495 1.98 1 4 C0.35160156 4.23332031 -0.29679687 4.46664062 -0.96484375 4.70703125 C-7.62559547 7.18402565 -14.11090417 9.91891537 -20.59130859 12.83129883 C-51.009907 26.49357084 -51.009907 26.49357084 -66 30 C-65.76831055 28.12158203 -65.76831055 28.12158203 -65 26 C-63.14770508 24.90576172 -63.14770508 24.90576172 -60.70703125 24.0546875 C-59.34698975 23.5592041 -59.34698975 23.5592041 -57.95947266 23.05371094 C-56.49453369 22.53212402 -56.49453369 22.53212402 -55 22 C-53.00089814 21.21858996 -51.0048616 20.42929947 -49.01171875 19.6328125 C-47.98240234 19.22514648 -46.95308594 18.81748047 -45.89257812 18.39746094 C-34.33316851 13.83582692 -34.33316851 13.83582692 -23 8.75 C-15.57290049 5.1939332 -7.7908674 2.63116719 0 0 Z " fill="#F0E2FF" transform="translate(321,186)"/>
<path d="M0 0 C-3.18868196 2.12578797 -4.64293499 2.38282702 -8.3671875 2.78125 C-9.41777344 2.90113281 -10.46835938 3.02101563 -11.55078125 3.14453125 C-12.64777344 3.26183594 -13.74476563 3.37914063 -14.875 3.5 C-17.03976734 3.73312879 -19.20387373 3.97249764 -21.3671875 4.21875 C-22.32737793 4.32123047 -23.28756836 4.42371094 -24.27685547 4.52929688 C-27.12964512 5.02240952 -29.41624851 5.69217859 -32 7 C-33.54077225 9.43436077 -34.75100722 11.65337596 -35.9375 14.25 C-36.27958496 14.96800781 -36.62166992 15.68601563 -36.97412109 16.42578125 C-38.00414903 18.60803567 -39.00673209 20.80080103 -40 23 C-40.54011719 24.19109375 -41.08023438 25.3821875 -41.63671875 26.609375 C-44.53760616 33.21822085 -47.11765263 39.91897079 -49.61206055 46.6875 C-54.1284757 58.84361516 -59.37276768 70.73384426 -64.65405273 82.57421875 C-66.61224212 86.99428503 -68.33461108 91.46394069 -70 96 C-70.33 96 -70.66 96 -71 96 C-71.125 90.25 -71.125 90.25 -70 88 C-70.66 87.67 -71.32 87.34 -72 87 C-70.515 86.505 -70.515 86.505 -69 86 C-67.48299165 83.27462875 -67.48299165 83.27462875 -66.14453125 79.859375 C-65.88205597 79.22990463 -65.61958069 78.60043427 -65.34915161 77.95188904 C-64.49265992 75.88892451 -63.65248466 73.81973432 -62.8125 71.75 C-62.22214258 70.3191254 -61.63107398 68.88854402 -61.03930664 67.45825195 C-57.86468913 59.75183966 -54.82809773 52.00525296 -51.9375 44.1875 C-48.8867743 35.9762935 -45.43379445 27.97543715 -41.8125 20 C-41.31290771 18.88262451 -40.81331543 17.76524902 -40.29858398 16.61401367 C-35.36803749 5.93458293 -35.36803749 5.93458293 -31 3 C-27.63579895 2.00953974 -24.29223387 1.57250227 -20.8125 1.1875 C-19.91724609 1.06697266 -19.02199219 0.94644531 -18.09960938 0.82226562 C-12.04596979 0.05736532 -6.09701577 -0.1408334 0 0 Z " fill="#9A85FE" transform="translate(225,116)"/>
<path d="M0 0 C0.495 1.98 0.495 1.98 1 4 C0.35820801 4.29060303 -0.28358398 4.58120605 -0.94482422 4.88061523 C-8.35379539 8.24117429 -15.74424279 11.64045117 -23.125 15.0625 C-23.72118134 15.33847015 -24.31736267 15.61444031 -24.93161011 15.89877319 C-31.73965408 19.05167649 -38.52731992 22.24010739 -45.27734375 25.515625 C-46.41993652 26.06984131 -47.5625293 26.62405762 -48.73974609 27.19506836 C-50.91847442 28.2556176 -53.09468427 29.32135977 -55.26806641 30.39282227 C-56.24308105 30.86776123 -57.2180957 31.3427002 -58.22265625 31.83203125 C-59.07609619 32.25202393 -59.92953613 32.6720166 -60.80883789 33.10473633 C-63 34 -63 34 -66 34 C-65.80566406 31.66992188 -65.80566406 31.66992188 -65 29 C-62.88964844 27.50195312 -62.88964844 27.50195312 -60.109375 26.28125 C-59.09649414 25.82661377 -58.08361328 25.37197754 -57.04003906 24.90356445 C-55.41146973 24.20880005 -55.41146973 24.20880005 -53.75 23.5 C-52.64624023 23.01297607 -51.54248047 22.52595215 -50.40527344 22.02416992 C-43.01273974 18.78734763 -35.56779859 15.79929073 -28 13 C-24.55426757 11.68730585 -21.11978256 10.34741714 -17.6875 9 C-16.85057617 8.67942627 -16.01365234 8.35885254 -15.15136719 8.02856445 C-9.69688902 5.87968252 -4.85618664 3.28400358 0 0 Z " fill="#F0E1FF" transform="translate(320,196)"/>
<path d="M0 0 C2.58034194 0.25803419 3.75698816 0.75985838 5.61230469 2.59326172 C7.53652452 5.93051701 7.35556409 8.48309791 7.328125 12.3203125 C7.32531525 13.37011795 7.32531525 13.37011795 7.32244873 14.44113159 C7.31574464 15.91539296 7.30186273 17.38963703 7.28125 18.86376953 C7.25001118 21.12419096 7.24026842 23.38391504 7.234375 25.64453125 C7.16385699 36.67228603 7.16385699 36.67228603 6 39 C4.68 39 3.36 39 2 39 C0.51257998 36.02515995 0.79574168 33.26127865 0.71875 29.9453125 C0.70034058 29.24735565 0.68193115 28.5493988 0.66296387 27.83029175 C0.60417325 25.59528078 0.5514003 23.36019241 0.5 21.125 C0.43218516 18.18994849 0.3584476 15.25513045 0.28125 12.3203125 C0.25095703 11.01336426 0.22066406 9.70641602 0.18945312 8.35986328 C0.03907853 5.69303957 -0.33263188 3.55074304 -1 1 C-0.67 0.67 -0.34 0.34 0 0 Z " fill="#7360E0" transform="translate(340,311)"/>
<path d="M0 0 C0.495 2.97 0.495 2.97 1 6 C0.1181604 6.27094482 0.1181604 6.27094482 -0.78149414 6.54736328 C-11.55266271 9.87271869 -22.16569377 13.29598435 -32.5859375 17.609375 C-35.90545589 18.96149004 -39.24358895 20.18715069 -42.625 21.375 C-48.80864065 23.54954488 -54.93850478 25.85039419 -61.0625 28.1875 C-61.96758301 28.53280762 -62.87266602 28.87811523 -63.80517578 29.23388672 C-67.88207936 30.79357935 -71.9545492 32.35995238 -76 34 C-76.66 33.34 -77.32 32.68 -78 32 C-77.07441284 31.65388672 -77.07441284 31.65388672 -76.13012695 31.30078125 C-73.19067487 30.2011692 -70.25153748 29.10071974 -67.3125 28 C-66.22122803 27.59136719 -65.12995605 27.18273437 -64.00561523 26.76171875 C-58.01774546 24.51653911 -52.03734307 22.25377126 -46.06738281 19.96142578 C-35.20169418 15.79094997 -24.27306758 11.80769207 -13.31640625 7.8828125 C-12.38586426 7.54797852 -11.45532227 7.21314453 -10.49658203 6.86816406 C-8.46438143 6.16148449 -6.40492677 5.5335645 -4.33984375 4.9296875 C-3.56769531 4.62289062 -2.79554688 4.31609375 -2 4 C-1.67 3.01 -1.34 2.02 -1 1 C-2.20011719 1.42410156 -3.40023437 1.84820312 -4.63671875 2.28515625 C-17.04775293 6.65716799 -29.50451147 10.87588258 -42 15 C-42.66 14.34 -43.32 13.68 -44 13 C-34.65566992 9.56280649 -25.23848526 6.33014659 -15.8125 3.125 C-14.6061792 2.70742432 -13.3998584 2.28984863 -12.15698242 1.85961914 C-11.01849854 1.47539795 -9.88001465 1.09117676 -8.70703125 0.6953125 C-7.6806958 0.34484863 -6.65436035 -0.00561523 -5.59692383 -0.36669922 C-3 -1 -3 -1 0 0 Z " fill="#A18BFF" transform="translate(337,231)"/>
<path d="M0 0 C0 0.99 0 1.98 0 3 C-7.39040386 7.01344899 -14.87095726 9.77981428 -22.875 12.3125 C-33.60787332 15.79758711 -44.05438537 19.69288853 -54.48632812 23.98095703 C-59.17549567 25.88194628 -63.89931787 27.69212655 -68.625 29.5 C-69.5329834 29.85070557 -70.4409668 30.20141113 -71.37646484 30.56274414 C-72.21387207 30.88235107 -73.0512793 31.20195801 -73.9140625 31.53125 C-74.6560791 31.81548828 -75.3980957 32.09972656 -76.16259766 32.39257812 C-78 33 -78 33 -80 33 C-79.67 32.01 -79.34 31.02 -79 30 C-76.29487104 28.69300133 -73.66301865 27.58914373 -70.859375 26.53125 C-69.54522614 26.02096252 -69.54522614 26.02096252 -68.20452881 25.50036621 C-65.14197069 24.31829407 -62.07198708 23.15734157 -59 22 C-57.84314697 21.56268555 -56.68629395 21.12537109 -55.49438477 20.67480469 C-47.09860608 17.50650206 -38.6897418 14.37403935 -30.27655029 11.25231934 C-26.84905574 9.97992534 -23.42262722 8.70466689 -19.99609375 7.4296875 C-13.3317385 4.95040519 -6.6662565 2.47416623 0 0 Z " fill="#ECDDFF" transform="translate(340,219)"/>
<path d="M0 0 C0 2.64 0 5.28 0 8 C-1.86691174 9.01501998 -3.74395344 10.01142079 -5.625 11 C-6.66914063 11.556875 -7.71328125 12.11375 -8.7890625 12.6875 C-12.17209124 14.07034386 -14.38614512 14.34788546 -18 14 C-19.875 12.8125 -19.875 12.8125 -21 11 C-21.4375 8.5 -21.4375 8.5 -21 6 C-17.74321672 2.81541142 -14.32154525 2.18377713 -9.9375 1.3125 C-8.70902344 1.06113281 -7.48054687 0.80976563 -6.21484375 0.55078125 C-3 0 -3 0 0 0 Z " fill="#F7F6FD" transform="translate(182,331)"/>
<path d="M0 0 C0.79664063 0.42152344 1.59328125 0.84304687 2.4140625 1.27734375 C4.00347656 2.09912109 4.00347656 2.09912109 5.625 2.9375 C6.66914063 3.48277344 7.71328125 4.02804688 8.7890625 4.58984375 C11.92416918 5.96669717 14.61454632 6.59842216 18 7 C17.25 13.625 17.25 13.625 15 17 C8.08346812 16.56771676 2.91361483 13.91361483 -2 9 C-2.34490322 4.94738713 -2.30163882 3.45245824 0 0 Z " fill="#967FFF" transform="translate(159,209)"/>
<path d="M0 0 C3 0.5 3 0.5 4.6640625 2.18359375 C6.29008666 5.00298652 6.4014343 6.8242978 6.375 10.0625 C6.38273437 11.01253906 6.39046875 11.96257812 6.3984375 12.94140625 C6 15.5 6 15.5 4.69921875 17.34765625 C3 18.5 3 18.5 -0.5625 18.375 C-4 17.5 -4 17.5 -6 14.5 C-6.30078125 12.16015625 -6.30078125 12.16015625 -6.3125 9.5625 C-6.32925781 8.70785156 -6.34601563 7.85320312 -6.36328125 6.97265625 C-5.73640233 2.7058352 -4.27060517 0.71176753 0 0 Z " fill="#6752DD" transform="translate(261,363.5)"/>
<path d="M0 0 C3.30540532 1.24732276 5.35908574 2.06776108 7.375 5 C8 7 8 7 8 10 C0.41 10 -7.18 10 -15 10 C-12.02189224 2.55473059 -8.27188141 -1.18169734 0 0 Z " fill="#F3F2FC" transform="translate(139,316)"/>
<path d="M0 0 C5.66683033 0.9522236 10.35763166 3.3313573 15.5 5.8125 C16.51376709 6.29879883 17.52753418 6.78509766 18.57202148 7.28613281 C26.46557721 11.12958867 34.08941088 15.34627499 41.66870117 19.77172852 C48.63739542 23.83640857 55.71945567 27.52491666 63 31 C59.57430738 32.14189754 59.24220165 31.94724377 56.1484375 30.48046875 C55.38885742 30.12291504 54.62927734 29.76536133 53.84667969 29.39697266 C52.62319824 28.79828369 52.62319824 28.79828369 51.375 28.1875 C50.52325195 27.77806152 49.67150391 27.36862305 48.79394531 26.94677734 C42.57039329 23.90202064 36.63977402 20.50511966 30.73388672 16.89135742 C23.55443001 12.57480747 16.00973933 9.06868124 8.40136719 5.57861328 C7.45422852 5.1401709 6.50708984 4.70172852 5.53125 4.25 C4.25604492 3.66992188 4.25604492 3.66992188 2.95507812 3.078125 C1 2 1 2 0 0 Z " fill="#9C86FF" transform="translate(191,219)"/>
<path d="M0 0 C2.76501836 1.0572129 5.3711414 2.19330281 8 3.5625 C10.74361426 4.8771485 13.00970184 5.56025027 16 6 C15.67 7.65 15.34 9.3 15 11 C11.91590215 11.93912169 10.38513394 12.14449551 7.32421875 10.99609375 C4.71150758 9.45169115 2.30005628 7.98461999 0 6 C-0.625 2.625 -0.625 2.625 0 0 Z " fill="#F8F7FF" transform="translate(159,212)"/>
<path d="M0 0 C0.56847656 0.39832031 1.13695312 0.79664063 1.72265625 1.20703125 C6.35725893 4.38703409 10.7499834 6.98935534 16 9 C15.67 10.32 15.34 11.64 15 13 C7.94156662 12.74791309 4.28540945 10.59661939 -1 6 C-0.67 4.02 -0.34 2.04 0 0 Z " fill="#F7F6FF" transform="translate(189,137)"/>
<path d="M0 0 C2.75784967 1.32083266 5.27177646 2.80273458 7.8125 4.5 C11.48320756 6.83465265 14.77260331 8.03122159 19 9 C18.125 14.75 18.125 14.75 17 17 C9.09410008 16.71251273 3.58203973 13.58203973 -2 8 C-1.69347955 5.0574037 -1.32728846 2.65457692 0 0 Z M1 2 C0.67 3.98 0.34 5.96 0 8 C5.28540945 12.59661939 8.94156662 14.74791309 16 15 C16.33 13.68 16.66 12.36 17 11 C16.18015625 10.60167969 15.3603125 10.20335937 14.515625 9.79296875 C13.43796875 9.26316406 12.3603125 8.73335937 11.25 8.1875 C9.64898437 7.40439453 9.64898437 7.40439453 8.015625 6.60546875 C5.44766758 5.2383308 3.25529217 3.82284537 1 2 Z " fill="#9A84FF" transform="translate(188,135)"/>
<path d="M0 0 C4.65864612 0.59132195 8.46886014 1.8797726 12.76171875 3.765625 C13.70867363 4.1785379 13.70867363 4.1785379 14.67475891 4.59979248 C16.68184286 5.47688125 18.68463306 6.36333049 20.6875 7.25 C22.01210527 7.83003153 23.33697321 8.40946361 24.66210938 8.98828125 C32.13751491 12.26057626 39.58223517 15.59893883 47 19 C47 19.66 47 20.32 47 21 C41.91844004 20.36862381 37.7250138 18.10179356 33.1875 15.875 C24.54384007 11.70352361 15.81966046 7.78265437 7 4 C6.00709961 3.57412598 6.00709961 3.57412598 4.99414062 3.13964844 C3.32964082 2.42593362 1.66485009 1.71289735 0 1 C0 0.67 0 0.34 0 0 Z " fill="#9E88FF" transform="translate(205,198)"/>
<path d="M0 0 C-0.33 1.65 -0.66 3.3 -1 5 C3.455 4.505 3.455 4.505 8 4 C6 8 6 8 3 10 C-0.5625 10.25 -0.5625 10.25 -4 10 C-6.46278801 7.53721199 -6.99771255 5.29323018 -8 2 C-4.91190305 0.23537317 -3.76687864 0 0 0 Z " fill="#F8F6FF" transform="translate(239,160)"/>
<path d="M0 0 C1.875 0.8125 1.875 0.8125 2.875 2.8125 C3.22794118 9.28308824 3.22794118 9.28308824 0.875 12.8125 C-1.5625 12.4375 -1.5625 12.4375 -4.125 11.8125 C-5.64991998 8.76266004 -5.36062548 6.1701631 -5.125 2.8125 C-3.5533932 0.29792912 -2.97770606 -0.26273877 0 0 Z " fill="#F7F6FD" transform="translate(262.125,366.1875)"/>
<path d="M0 0 C1.2065625 0.0309375 1.2065625 0.0309375 2.4375 0.0625 C2.1075 0.7225 1.7775 1.3825 1.4375 2.0625 C0.4475 2.0625 -0.5425 2.0625 -1.5625 2.0625 C-1.5625 4.3725 -1.5625 6.6825 -1.5625 9.0625 C-0.9025 9.3925 -0.2425 9.7225 0.4375 10.0625 C0.1075 11.7125 -0.2225 13.3625 -0.5625 15.0625 C0.7575 14.7325 2.0775 14.4025 3.4375 14.0625 C3.4375 13.0725 3.4375 12.0825 3.4375 11.0625 C2.7775 10.4025 2.1175 9.7425 1.4375 9.0625 C2.0975 8.7325 2.7575 8.4025 3.4375 8.0625 C4.4275 8.7225 5.4175 9.3825 6.4375 10.0625 C6.625 13.1875 6.625 13.1875 6.4375 16.0625 C3.31453962 17.91314319 1.05809232 18.35606154 -2.5625 18.0625 C-4.38366003 16.24133997 -3.6948508 13.75578236 -3.69921875 11.3359375 C-3.69535156 10.58570313 -3.69148437 9.83546875 -3.6875 9.0625 C-3.69136719 8.31226563 -3.69523438 7.56203125 -3.69921875 6.7890625 C-3.68712645 0.08992991 -3.68712645 0.08992991 0 0 Z " fill="#6652DD" transform="translate(224.5625,363.9375)"/>
<path d="M0 0 C1.98 0 3.96 0 6 0 C5.88602456 2.43847451 5.75929026 4.87513174 5.625 7.3125 C5.57859375 8.34793945 5.57859375 8.34793945 5.53125 9.40429688 C5.31875081 13.06990789 5.08066139 14.87900792 3 18 C0.5 18.3125 0.5 18.3125 -2 18 C-4 16 -4 16 -4.125 13.375 C-4.08375 12.59125 -4.0425 11.8075 -4 11 C-3.01 11.33 -2.02 11.66 -1 12 C-1 13.32 -1 14.64 -1 16 C-0.01 16 0.98 16 2 16 C2 11.38 2 6.76 2 2 C1.34 2 0.68 2 0 2 C0 1.34 0 0.68 0 0 Z " fill="#6652DD" transform="translate(246,364)"/>
<path d="M0 0 C0 1.65 0 3.3 0 5 C0.66 4.67 1.32 4.34 2 4 C3.99960012 3.960008 6.00047242 3.95653201 8 4 C7.7153924 7.41529114 7.20339329 8.78498424 4.8125 11.3125 C1.4527447 13.32835318 -0.14674921 13.64220846 -4 13 C-7.40250907 10.83476695 -9.63887311 8.83590306 -11 5 C-11 4.01 -11 3.02 -11 2 C-6.89657963 -0.38570952 -4.61380251 -1.49270081 0 0 Z M-9 4 C-7.3672149 7.74667202 -7.3672149 7.74667202 -5 11 C-0.8138968 11.40250992 1.34564484 11.41767351 4.9375 9.125 C7.23215846 7.25436301 7.23215846 7.25436301 7 5 C2.545 5.495 2.545 5.495 -2 6 C-1.67 4.35 -1.34 2.7 -1 1 C-5.26826873 1 -5.93882432 1.37613513 -9 4 Z " fill="#9B85FF" transform="translate(240,159)"/>
<path d="M0 0 C0.66 0.33 1.32 0.66 2 1 C2.25 6.625 2.25 6.625 0 10 C-0.66 10 -1.32 10 -2 10 C-2 12.64 -2 15.28 -2 18 C-2.66 18 -3.32 18 -4 18 C-4.103125 16.906875 -4.20625 15.81375 -4.3125 14.6875 C-4.62273564 11.09450018 -4.62273564 11.09450018 -6.5 9.5 C-8.90668269 7.09331731 -8.6914451 4.27068194 -9 1 C-8.01 1 -7.02 1 -6 1 C-5.67 2.98 -5.34 4.96 -5 7 C-4.01 7 -3.02 7 -2 7 C-1.34 4.69 -0.68 2.38 0 0 Z " fill="#6955DE" transform="translate(278,364)"/>
<path d="M0 0 C-0.875 6.875 -0.875 6.875 -2 8 C-1.59070014 10.05396726 -1.59070014 10.05396726 -1 12 C-2.65 12.33 -4.3 12.66 -6 13 C-5.979375 12.195625 -5.95875 11.39125 -5.9375 10.5625 C-5.70366379 8.06645115 -5.70366379 8.06645115 -7 7 C-7.04092937 4.66702567 -7.04241723 2.33294775 -7 0 C-3.86650268 -1.04449911 -3.01031744 -0.93423645 0 0 Z " fill="#6D59DE" transform="translate(230,366)"/>
<path d="M0 0 C0 0.33 0 0.66 0 1 C-4.85452242 1.74317561 -9.71079051 2.47310374 -14.5690918 3.19116211 C-16.21936804 3.43693418 -17.86912341 3.68623197 -19.51831055 3.93920898 C-21.89762128 4.30354319 -24.27855626 4.65489012 -26.66015625 5.00390625 C-27.38960953 5.11843643 -28.11906281 5.23296661 -28.87062073 5.35096741 C-33.51568801 6.01555058 -37.38411993 5.87127054 -42 5 C-42 4.67 -42 4.34 -42 4 C-41.35562988 3.91959473 -40.71125977 3.83918945 -40.04736328 3.75634766 C-37.0727568 3.3829906 -34.09888936 3.00402511 -31.125 2.625 C-30.11179688 2.49867187 -29.09859375 2.37234375 -28.0546875 2.2421875 C-23.17590016 1.61670194 -18.37308363 0.90717984 -13.5625 -0.125 C-8.69306444 -1.14259593 -4.89920946 -0.79019507 0 0 Z " fill="#AB97FF" transform="translate(264,111)"/>
<path d="M0 0 C2.31 0 4.62 0 7 0 C7 0.66 7 1.32 7 2 C6.01 2 5.02 2 4 2 C4 6.29 4 10.58 4 15 C4.66 15 5.32 15 6 15 C6 15.66 6 16.32 6 17 C4.02 17 2.04 17 0 17 C0 16.34 0 15.68 0 15 C0.66 15 1.32 15 2 15 C2 10.71 2 6.42 2 2 C1.34 2 0.68 2 0 2 C0 1.34 0 0.68 0 0 Z " fill="#614BDC" transform="translate(234,365)"/>
<path d="M0 0 C0 0.33 0 0.66 0 1 C-2.11327383 1.47719087 -4.2271406 1.95189146 -6.34375 2.4140625 C-8.1388991 2.81005127 -9.93060044 3.22195355 -11.71875 3.6484375 C-13.03359375 3.94621094 -13.03359375 3.94621094 -14.375 4.25 C-15.18710938 4.44078125 -15.99921875 4.6315625 -16.8359375 4.828125 C-19 5 -19 5 -22 3 C-19.08774159 2.10714711 -16.17183829 1.23541864 -13.25 0.375 C-12.425 0.11976563 -11.6 -0.13546875 -10.75 -0.3984375 C-9.55117187 -0.74648437 -9.55117187 -0.74648437 -8.328125 -1.1015625 C-7.5949707 -1.32150879 -6.86181641 -1.54145508 -6.10644531 -1.76806641 C-3.48180589 -2.05705661 -2.21890324 -1.35502194 0 0 Z " fill="#A490FF" transform="translate(239,179)"/>
<path d="M0 0 C2.625 0.375 2.625 0.375 5 1 C5.625 2.875 5.625 2.875 6 5 C5.34 5.66 4.68 6.32 4 7 C1.375 6.625 1.375 6.625 -1 6 C-1.625 4.125 -1.625 4.125 -2 2 C-1.34 1.34 -0.68 0.68 0 0 Z " fill="#6450DC" transform="translate(342,299)"/>
<path d="M0 0 C0.79664063 0.42152344 1.59328125 0.84304687 2.4140625 1.27734375 C4.00347656 2.09912109 4.00347656 2.09912109 5.625 2.9375 C6.66914063 3.48277344 7.71328125 4.02804688 8.7890625 4.58984375 C11.92416918 5.96669717 14.61454632 6.59842216 18 7 C15.58102704 8.58163617 14.16784301 9.00381461 11.25 8.9375 C6.96660047 7.70190398 3.65016273 5.51064493 0 3 C-0.33 4.32 -0.66 5.64 -1 7 C-1.625 5.1875 -1.625 5.1875 -2 3 C-1.34 2.01 -0.68 1.02 0 0 Z " fill="#9F8AFF" transform="translate(159,209)"/>
<path d="M0 0 C1.64574566 -0.02688151 3.29161413 -0.04634123 4.9375 -0.0625 C5.85402344 -0.07410156 6.77054687 -0.08570312 7.71484375 -0.09765625 C10 0 10 0 11 1 C11.42407099 5.66478085 10.69319525 8.18464006 8 12 C7.01 11.67 6.02 11.34 5 11 C6.65 8.03 8.3 5.06 10 2 C6.7 1.67 3.4 1.34 0 1 C0 0.67 0 0.34 0 0 Z " fill="#A592FF" transform="translate(276,123)"/>
<path d="M0 0 C0.66 0.99 1.32 1.98 2 3 C-4.435 3.495 -4.435 3.495 -11 4 C-11 3.34 -11 2.68 -11 2 C-11.66 1.67 -12.32 1.34 -13 1 C-4.26838235 -0.39705882 -4.26838235 -0.39705882 0 0 Z " fill="#E5D6FF" transform="translate(211,119)"/>
<path d="M0 0 C1.98 0 3.96 0 6 0 C5.67 2.97 5.34 5.94 5 9 C4.67 9 4.34 9 4 9 C3.67 10.65 3.34 12.3 3 14 C2.67 14 2.34 14 2 14 C2 10.04 2 6.08 2 2 C1.34 2 0.68 2 0 2 C0 1.34 0 0.68 0 0 Z " fill="#7E6DE2" transform="translate(246,364)"/>
<path d="M0 0 C8.415 1.98 8.415 1.98 17 4 C12.06946606 6.46526697 10.86399089 5.7349601 5.75 4.125 C5.1003125 3.92519531 4.450625 3.72539062 3.78125 3.51953125 C2.18340837 3.02608016 0.59110197 2.51476828 -1 2 C-0.67 1.34 -0.34 0.68 0 0 Z " fill="#A689FA" transform="translate(274,168)"/>
<path d="M0 0 C0.66 0.33 1.32 0.66 2 1 C2.25 6.625 2.25 6.625 0 10 C-1.32 9.67 -2.64 9.34 -4 9 C-3.34 8.34 -2.68 7.68 -2 7 C-1.28072705 4.68234271 -0.6090107 2.34904126 0 0 Z " fill="#7C6AE2" transform="translate(278,364)"/>
<path d="M0 0 C1.9375 0.6875 1.9375 0.6875 2.9375 2.6875 C5.2475 2.6875 7.5575 2.6875 9.9375 2.6875 C9.6075 3.3475 9.2775 4.0075 8.9375 4.6875 C6.6234378 5.41825648 4.28921131 6.08888258 1.9375 6.6875 C1.6075 5.0375 1.2775 3.3875 0.9375 1.6875 C-0.3825 2.0175 -1.7025 2.3475 -3.0625 2.6875 C-3.3925 2.0275 -3.7225 1.3675 -4.0625 0.6875 C-2.0625 -0.3125 -2.0625 -0.3125 0 0 Z " fill="#A686FA" transform="translate(289.0625,178.3125)"/>
<path d="M0 0 C1.32 0.33 2.64 0.66 4 1 C4 2.32 4 3.64 4 5 C2.02 5.99 2.02 5.99 0 7 C0 4.69 0 2.38 0 0 Z " fill="#E2DEF8" transform="translate(223,366)"/>
<path d="M0 0 C2.475 0.495 2.475 0.495 5 1 C4.67 2.32 4.34 3.64 4 5 C2.68 5 1.36 5 0 5 C0 3.35 0 1.7 0 0 Z " fill="#EDEAFB" transform="translate(224,374)"/>
<path d="M0 0 C0.33 0 0.66 0 1 0 C1 3.63 1 7.26 1 11 C-1 10 -1 10 -1.75 8.3125 C-2.08937645 5.17326781 -1.12469641 2.91097894 0 0 Z " fill="#826AF8" transform="translate(338,224)"/>
<path d="M0 0 C-0.99 0.66 -1.98 1.32 -3 2 C-2.67 2.99 -2.34 3.98 -2 5 C-2.66 5.66 -3.32 6.32 -4 7 C-5.4606285 4.35261084 -6 3.10551666 -6 0 C-3 -1 -3 -1 0 0 Z " fill="#A894FF" transform="translate(235,161)"/>
<path d="M0 0 C0.99 0.33 1.98 0.66 3 1 C2.1875 2.9375 2.1875 2.9375 1 5 C0.01 5.33 -0.98 5.66 -2 6 C-2 5.34 -2 4.68 -2 4 C-2.66 3.67 -3.32 3.34 -4 3 C-3.01 2.67 -2.02 2.34 -1 2 C-0.67 1.34 -0.34 0.68 0 0 Z " fill="#7F6EE2" transform="translate(264,376)"/>
<path d="M0 0 C1.7074998 1.28062485 3.37373596 2.61767557 5 4 C5 4.66 5 5.32 5 6 C3.35 5.67 1.7 5.34 0 5 C-0.5625 3.0625 -0.5625 3.0625 -1 1 C-0.67 0.67 -0.34 0.34 0 0 Z " fill="#715EDF" transform="translate(257,376)"/>
<path d="M0 0 C0.99 0.33 1.98 0.66 3 1 C2.34 1.66 1.68 2.32 1 3 C0.67 3 0.34 3 0 3 C0 5.64 0 8.28 0 11 C-2 9 -2 9 -2.25 5.5 C-2 2 -2 2 0 0 Z " fill="#A590FF" transform="translate(203,187)"/>
<path d="M0 0 C0 0.99 0 1.98 0 3 C-1.98 3.99 -3.96 4.98 -6 6 C-5.8125 4.125 -5.8125 4.125 -5 2 C-2.4375 0.75 -2.4375 0.75 0 0 Z " fill="#E3D4FF" transform="translate(340,219)"/>
<path d="M0 0 C0.33 0.99 0.66 1.98 1 3 C2.32 2.67 3.64 2.34 5 2 C4.319375 2.61875 4.319375 2.61875 3.625 3.25 C1.94049626 5.06408095 1.00734029 6.75285627 0 9 C-1.125 3.375 -1.125 3.375 0 0 Z " fill="#8C74FF" transform="translate(253,214)"/>
<path d="M0 0 C0 0.33 0 0.66 0 1 C-6.0546875 1.9765625 -6.0546875 1.9765625 -8 2 C-8.66 1.34 -9.32 0.68 -10 0 C-6.42355152 -1.2380014 -3.66305234 -0.74926071 0 0 Z " fill="#A38DFF" transform="translate(228,134)"/>
</svg>
